<svg width="218" height="218" viewBox="0 0 218 218" fill="none" xmlns="http://www.w3.org/2000/svg">
<rect width="217.213" height="217.213" rx="100" fill="white"/>
<circle cx="112.333" cy="108.831" r="73.4892" fill="#282828"/>
<circle cx="112.333" cy="108.831" r="68.7984" fill="#FF9639"/>
<path d="M135.569 20.6439C100.252 29.9213 71.1114 59.493 62.813 94.2832C59.3392 109.552 59.1463 126.947 62.427 139.897L64.9359 149.754L59.5322 147.822C45.6372 142.99 30.9702 153.233 30.9702 167.729C30.9702 182.998 40.2336 193.629 52.7777 192.856C64.5499 192.276 72.6553 186.284 75.3571 176.427C76.1291 173.334 77.866 175.074 84.0415 184.545C94.8488 201.167 104.884 205.612 103.919 193.049C103.533 189.183 102.375 185.898 101.024 185.898C98.3225 185.898 82.1117 164.637 80.3748 158.645C79.2169 155.166 79.7958 154.586 85.0065 154.78C90.0241 154.973 90.7961 155.746 90.7961 160.191C90.7961 166.763 96.3927 181.066 98.9015 181.066C100.059 181.066 100.445 179.906 99.8664 178.553C99.4805 177.393 97.3576 171.208 95.6207 165.217L92.147 154.2L100.059 136.805C104.498 127.334 118.779 97.9555 131.709 71.4763C144.639 45.1903 155.061 22.9632 154.868 21.9968C154.675 21.2237 155.447 20.6439 156.411 20.6439C157.569 20.6439 158.341 19.6775 158.341 18.7111C158.341 15.8119 151.587 16.585 135.569 20.6439ZM121.095 86.3588L89.8311 150.141L83.0766 149.754C76.515 149.175 76.3221 148.981 73.8132 137.578C66.6727 104.334 79.9888 67.0309 107.007 44.9971C114.147 39.0054 145.604 23.1565 151.008 22.77C151.78 22.5767 138.271 51.3753 121.095 86.3588ZM64.3569 155.939C60.4972 159.418 44.2863 164.25 42.3564 162.318C39.8476 159.805 43.5143 156.712 52.1987 154.586C59.3392 152.654 67.0587 153.62 64.3569 155.939ZM44.6723 174.301C46.6021 178.553 48.339 183.965 48.339 186.477C48.339 190.15 47.76 190.536 44.6723 188.99C40.0406 186.284 34.8299 175.267 34.8299 167.536C34.8299 161.931 35.2159 161.544 38.1107 163.864C39.8476 165.41 42.7424 170.049 44.6723 174.301ZM71.4974 174.301C71.4974 177.78 61.8481 182.998 55.0935 182.998C48.532 182.998 48.725 177.587 55.6725 176.04C58.5673 175.46 63.006 174.108 65.7078 173.334C68.4096 172.368 70.7254 171.595 71.1114 171.595C71.3044 171.402 71.4974 172.755 71.4974 174.301Z" fill="#282828"/>
<path d="M131.278 122.369C108.699 143.437 104.646 147.689 107.541 148.076C108.892 148.269 158.103 102.848 158.296 100.915C158.682 97.4364 154.051 101.109 131.278 122.369Z" fill="#282828"/>
<path d="M149.223 130.858C145.556 134.917 145.749 134.917 150.188 138.589C152.697 140.522 156.171 142.261 157.907 142.261C160.223 142.261 160.03 141.295 156.363 138.589L151.925 135.11L157.907 136.076C161.188 136.463 165.241 135.883 166.785 134.53C168.329 133.177 169.68 132.984 169.68 134.144C169.68 135.11 167.75 137.429 165.434 138.975C162.153 141.102 161.767 142.068 163.89 142.068C167.364 142.261 175.469 137.043 175.469 134.53C175.469 126.606 155.592 123.706 149.223 130.858ZM160.995 132.597C161.574 133.564 161.188 134.53 160.223 134.53C159.065 134.53 158.1 133.564 158.1 132.597C158.1 131.438 158.486 130.664 158.872 130.664C159.451 130.664 160.416 131.438 160.995 132.597Z" fill="#282828"/>
<path d="M143.095 153.233C139.815 157.485 139.043 161.158 139.043 173.721C139.043 182.225 140.008 190.729 140.973 192.662C145.218 200.587 165.868 199.813 171.078 191.696C173.78 187.444 173.78 185.897 169.728 173.334C167.412 165.99 164.71 159.805 163.938 159.805C162.973 159.805 162.201 158.645 162.201 157.292C162.201 153.426 155.833 148.208 151.008 148.208C148.885 148.208 145.218 150.527 143.095 153.233ZM157.376 154.586C160.464 157.099 160.078 157.485 152.745 159.225C144.446 161.351 142.131 159.418 147.148 154.393C150.236 151.3 152.938 151.494 157.376 154.586ZM156.412 172.561C156.412 172.948 154.675 172.561 152.552 171.401C150.429 170.242 148.692 168.889 148.692 168.309C148.692 167.922 150.429 168.309 152.552 169.469C154.675 170.628 156.412 171.981 156.412 172.561ZM155.447 179.133C154.868 180.099 155.447 181.065 156.605 181.452C157.955 181.838 157.376 183.385 155.254 184.931C153.131 186.67 152.359 186.864 153.324 185.318C154.096 184.158 154.096 181.838 153.131 180.486C152.359 179.326 151.587 177.007 151.394 175.654C151.008 173.721 151.587 173.721 153.71 175.46C155.061 176.62 156.026 178.359 155.447 179.133Z" fill="#282828"/>
</svg>
