<?xml version="1.0" standalone="no"?>
<!DOCTYPE svg PUBLIC "-//W3C//DTD SVG 20010904//EN"
 "http://www.w3.org/TR/2001/REC-SVG-20010904/DTD/svg10.dtd">
<svg version="1.0" xmlns="http://www.w3.org/2000/svg"
 width="607.000000pt" height="607.000000pt" viewBox="0 0 607.000000 607.000000"
 preserveAspectRatio="xMidYMid meet">
<metadata>
Created by potrace 1.14, written by Peter Selinger 2001-2017
</metadata>
<g transform="translate(0.000000,607.000000) scale(0.100000,-0.100000)"
fill="#000000" stroke="none">
<path d="M4465 6063 c-82 -11 -349 -69 -501 -108 -366 -94 -680 -233 -999
-440 -101 -65 -118 -73 -190 -84 -224 -36 -503 -125 -700 -224 -196 -98 -430
-264 -593 -422 -410 -394 -653 -877 -733 -1455 -20 -141 -17 -488 4 -630 46
-297 146 -602 276 -833 32 -56 45 -89 38 -92 -7 -2 -34 -8 -62 -15 -27 -6 -91
-31 -141 -55 -155 -75 -289 -220 -347 -375 -55 -147 -60 -328 -13 -510 99
-388 378 -600 737 -560 139 16 212 36 328 92 88 42 116 62 180 126 87 88 140
173 177 284 22 68 29 78 49 78 33 0 83 -60 225 -271 141 -209 219 -309 311
-400 173 -170 307 -204 353 -89 21 52 21 186 1 264 -25 95 -43 124 -89 145
-38 17 -193 167 -183 177 2 2 33 -2 68 -10 230 -54 593 -65 844 -27 159 24
336 67 456 111 46 16 84 30 84 30 1 0 5 -60 8 -132 9 -176 32 -322 60 -378 30
-61 103 -114 202 -147 73 -24 94 -27 240 -27 125 -1 175 3 230 18 235 62 375
199 375 365 0 79 -15 146 -77 346 -54 177 -124 367 -165 448 l-29 58 102 117
c322 373 508 789 581 1297 19 135 16 494 -5 635 -117 766 -564 1415 -1231
1789 l-84 47 21 39 c78 153 284 616 290 653 5 30 27 52 53 52 44 0 78 53 56
87 -18 29 -106 40 -207 26z m-25 -189 c0 -19 -262 -600 -279 -616 -4 -5 -45 8
-91 28 -113 47 -280 97 -415 124 -60 11 -126 24 -145 29 l-35 7 107 57 c356
192 858 409 858 371z m-975 -589 c136 -19 260 -47 380 -85 95 -30 245 -88 245
-95 0 -14 -1662 -3421 -1676 -3434 -10 -10 -326 20 -363 35 -74 29 -100 89
-155 348 -57 266 -61 314 -61 641 1 261 4 319 23 444 61 388 199 785 387 1116
155 274 301 464 529 690 158 158 240 226 374 311 63 40 71 43 142 43 41 0 120
-6 175 -14z m-1027 -192 c-407 -400 -681 -833 -848 -1343 -155 -470 -201
-1078 -120 -1557 15 -88 90 -410 116 -495 4 -14 -8 -12 -78 14 -46 17 -121 41
-166 52 l-84 22 -46 75 c-157 256 -265 571 -308 899 -22 172 -15 486 15 655
129 725 582 1332 1236 1655 111 55 383 159 416 160 4 0 -56 -62 -133 -137z
m1977 -168 c444 -289 781 -747 929 -1262 66 -229 81 -346 80 -633 0 -272 -8
-350 -59 -550 -83 -328 -257 -667 -470 -915 -42 -49 -80 -91 -84 -92 -3 -2
-15 15 -25 37 -47 98 -211 209 -323 218 -74 6 -164 -38 -248 -123 -118 -118
-157 -237 -171 -526 l-7 -146 -96 -36 c-116 -42 -310 -91 -446 -113 -206 -32
-506 -29 -710 7 l-61 10 -26 82 c-82 254 -198 636 -198 648 0 39 369 820 975
2064 164 336 382 784 485 996 104 213 198 405 210 428 l21 42 57 -32 c31 -18
107 -64 167 -104z m168 -3367 c63 -34 127 -87 127 -106 0 -22 -46 -41 -169
-72 -279 -70 -365 -44 -280 84 36 53 105 113 146 126 45 15 110 3 176 -32z
m-3040 -19 c21 -5 41 -17 44 -25 6 -16 -33 -64 -51 -64 -6 0 -30 23 -54 50
l-43 50 33 0 c18 0 50 -5 71 -11z m-229 -82 c37 -42 64 -82 61 -87 -9 -14
-242 -87 -336 -105 -118 -22 -174 -20 -199 7 -63 68 36 160 240 222 107 32
153 45 161 43 3 -1 36 -37 73 -80z m1055 40 c57 -20 70 -48 80 -177 11 -129
44 -269 95 -395 38 -97 39 -96 -64 -62 l-65 22 -82 115 c-196 273 -283 466
-225 499 24 14 219 13 261 -2z m-1694 -261 c102 -62 266 -358 340 -614 29 -99
34 -226 11 -257 -13 -18 -15 -18 -62 -1 -83 31 -170 130 -243 278 -33 68 -72
164 -87 213 -42 144 -46 405 -6 405 4 0 25 -11 47 -24z m3899 -261 c77 -59 55
-73 -45 -29 -63 28 -69 37 -41 53 27 16 36 13 86 -24z m-2766 -73 c4 -66 -14
-101 -80 -153 -184 -145 -491 -214 -588 -133 -38 33 -39 71 -4 114 34 40 87
66 171 86 83 19 347 96 423 123 30 11 60 18 65 17 6 -1 11 -26 13 -54z m2701
-56 c18 -13 44 -39 57 -58 21 -28 24 -40 19 -80 -7 -47 -6 -48 29 -69 20 -11
36 -27 36 -35 0 -31 -130 -147 -147 -131 -3 3 2 16 11 29 27 38 20 107 -19
190 -40 84 -57 178 -33 178 8 0 29 -11 47 -24z"/>
<path d="M4585 3296 c-108 -73 -435 -366 -1015 -911 -410 -386 -600 -584 -600
-626 0 -5 8 -13 19 -18 15 -9 34 3 112 68 286 239 1086 978 1422 1312 121 122
157 163 157 183 0 37 -33 34 -95 -8z"/>
<path d="M4610 2425 c-102 -23 -180 -67 -245 -137 -69 -74 -80 -99 -61 -136
27 -53 185 -168 279 -204 51 -20 122 -24 132 -8 11 17 -19 48 -130 135 -59 47
-104 85 -99 85 5 0 47 -7 94 -15 173 -30 312 -14 394 46 49 36 76 38 76 6 0
-37 -53 -99 -139 -162 -83 -61 -101 -82 -79 -97 48 -32 250 57 353 155 70 67
77 88 51 150 -30 71 -128 137 -261 173 -85 22 -283 28 -365 9z m118 -131 c19
-13 52 -63 52 -78 0 -2 -7 -11 -15 -20 -12 -12 -22 -13 -43 -5 -34 13 -42 26
-42 70 0 52 11 59 48 33z"/>
</g>
</svg>
