<?xml version="1.0" standalone="no"?>
<!DOCTYPE svg PUBLIC "-//W3C//DTD SVG 20010904//EN"
 "http://www.w3.org/TR/2001/REC-SVG-20010904/DTD/svg10.dtd">
<svg version="1.0" xmlns="http://www.w3.org/2000/svg"
 width="268.000000pt" height="268.000000pt" viewBox="0 0 268.000000 268.000000"
 preserveAspectRatio="xMidYMid meet">
<metadata>
Created by potrace 1.14, written by Peter Selinger 2001-2017
</metadata>
<g transform="translate(0.000000,268.000000) scale(0.100000,-0.100000)"
fill="#000000" stroke="none">
<path d="M1275 2561 c-2 -2 -21 -5 -42 -7 -21 -2 -47 -5 -58 -8 -11 -2 -42 -9
-68 -15 -278 -64 -568 -280 -694 -518 -6 -12 -18 -35 -27 -50 -47 -86 -102
-256 -113 -352 -12 -106 -6 -286 12 -361 3 -14 7 -36 9 -50 4 -22 18 -64 58
-175 6 -16 26 -56 45 -88 18 -32 33 -61 33 -63 0 -3 5 -10 10 -17 6 -7 29 -37
52 -67 71 -93 172 -188 268 -252 213 -140 467 -201 725 -174 58 6 72 8 140 22
46 9 163 53 238 90 252 125 456 359 546 630 30 89 35 108 48 194 7 47 7 251 0
310 -13 106 -47 221 -97 326 -97 203 -272 386 -482 502 -32 18 -58 29 -58 26
0 -3 -10 1 -23 9 -44 28 -205 72 -308 83 -71 8 -209 11 -214 5z"/>
<path d="M2179 608 c-1 -7 -1 -17 0 -22 1 -5 -5 -6 -13 -3 -24 9 -56 -40 -56
-85 0 -66 38 -118 87 -118 10 0 33 14 51 31 27 25 32 37 31 72 -1 48 -6 63
-34 99 -25 30 -64 46 -66 26z m34 -96 c16 -34 6 -75 -17 -66 -21 8 -35 55 -25
82 10 27 22 22 42 -16z"/>
<path d="M492 552 c-67 -30 -82 -41 -80 -57 4 -26 40 -31 72 -9 31 19 35 5 6
-21 -26 -23 -25 -31 4 -50 16 -11 30 -13 47 -7 13 5 38 12 54 16 l30 7 -35
-30 -35 -31 23 -19 c13 -11 28 -18 35 -15 7 3 36 34 65 69 l52 64 -21 20 c-21
20 -21 20 -86 -3 -66 -25 -67 -24 -20 28 21 24 22 40 1 60 -20 20 -15 21 -112
-22z"/>
<path d="M2010 533 c0 -5 -14 -16 -30 -25 -17 -9 -30 -24 -30 -33 0 -14 3 -14
30 0 17 9 30 11 30 6 0 -5 -6 -11 -14 -14 -9 -4 -14 -24 -15 -58 0 -29 -5 -57
-11 -63 -13 -13 -13 -53 0 -61 5 -3 7 -12 3 -20 -3 -10 1 -15 13 -15 30 0 47
16 47 43 0 15 8 34 19 44 11 10 19 13 18 8 -8 -36 17 -51 49 -29 20 14 20 16
4 42 -51 83 -87 131 -96 125 -5 -3 -6 7 -2 26 4 20 3 31 -4 31 -6 0 -11 -3
-11 -7z m28 -148 c-3 -3 -9 2 -12 12 -6 14 -5 15 5 6 7 -7 10 -15 7 -18z"/>
<path d="M762 441 c-7 -4 -15 -17 -16 -27 -2 -11 -12 -20 -25 -22 -12 -2 -25
-11 -28 -20 -3 -9 -13 -25 -20 -34 -9 -9 -12 -25 -8 -37 7 -24 86 -64 109 -55
23 9 15 26 -18 43 -19 9 -25 16 -18 23 7 7 20 6 40 -4 19 -10 35 -12 46 -6 23
13 20 27 -9 40 -26 12 -34 38 -12 38 7 0 22 -7 34 -15 23 -16 48 -12 57 10 3
9 -15 23 -52 41 -31 16 -59 30 -62 31 -3 2 -11 -1 -18 -6z"/>
<path d="M1870 395 c-7 -8 -9 -15 -4 -15 5 0 9 -15 8 -32 -1 -25 -6 -34 -21
-36 -18 -3 -20 2 -17 28 3 29 2 31 -24 28 -24 -3 -27 -8 -30 -43 -2 -22 -8
-44 -13 -49 -13 -14 -11 -46 2 -46 7 0 10 -12 7 -30 -4 -25 -1 -30 16 -30 36
0 49 15 44 49 -4 26 -1 32 19 37 12 4 20 11 16 17 -3 5 -1 7 5 3 7 -4 8 -17 2
-36 -5 -17 -8 -30 -7 -31 17 -7 39 -5 53 5 15 11 16 23 8 102 -8 79 -11 89
-30 92 -11 2 -27 -4 -34 -13z"/>
<path d="M897 349 c-15 -9 -17 -19 -12 -59 4 -30 2 -51 -4 -55 -6 -3 -11 1
-11 9 0 35 -64 32 -73 -4 -4 -15 1 -22 19 -26 13 -3 24 -9 24 -13 0 -4 20 -9
44 -9 56 -3 70 14 64 73 -6 52 -1 61 24 38 13 -12 22 -13 29 -6 8 8 18 7 37
-3 14 -7 29 -11 34 -8 5 3 -13 -25 -38 -61 -37 -53 -44 -69 -33 -76 28 -17 54
-9 73 24 37 61 45 77 38 77 -4 0 1 5 10 10 11 7 25 6 42 -1 l25 -12 -30 -59
c-16 -32 -27 -63 -24 -68 11 -18 53 -11 60 10 9 29 20 25 44 -15 21 -36 28
-39 55 -29 16 6 12 29 -11 56 -15 17 -10 38 9 38 16 0 37 32 38 56 0 35 -34
56 -107 64 -37 5 -91 15 -120 23 -34 9 -57 11 -69 4 -12 -7 -15 -6 -10 2 16
25 -90 42 -127 20z m357 -95 c22 -8 21 -44 -1 -44 -12 0 -18 8 -19 25 -2 28
-2 28 20 19z"/>
<path d="M1662 324 c-55 -38 -73 -157 -28 -186 24 -16 67 -8 91 18 25 27 34
74 14 74 -20 0 -49 -21 -49 -35 0 -8 -6 -12 -14 -9 -10 4 -11 15 -5 51 10 49
19 66 26 46 6 -17 28 -16 42 1 9 11 10 20 1 35 -13 25 -47 27 -78 5z"/>
<path d="M1399 292 c-28 -3 -48 -41 -28 -53 7 -4 4 -13 -8 -24 -24 -24 -26
-103 -4 -114 23 -11 99 -7 112 6 21 21 4 40 -31 35 -25 -3 -31 -1 -28 9 3 8
20 16 39 19 26 4 35 10 37 28 3 18 -1 21 -20 18 -22 -3 -48 9 -48 23 0 4 16 7
35 6 34 -2 55 15 55 43 0 9 -52 11 -111 4z"/>
</g>
</svg>
