<svg viewBox="0 0 20 22" fill="none" xmlns="http://www.w3.org/2000/svg">
<path
        d="M7 16V17C7 17.394 7.0776 17.7841 7.22836 18.1481C7.37913 18.512 7.6001 18.8427 7.87868 19.1213C8.1573 19.3999 8.488 19.6209 8.8519 19.7716C9.2159 19.9224 9.606 20 10 20C10.394 20 10.7841 19.9224 11.1481 19.7716C11.512 19.6209 11.8427 19.3999 12.1213 19.1213C12.3999 18.8427 12.6209 18.512 12.7716 18.1481C12.9224 17.7841 13 17.394 13 17V16" stroke="black" stroke-width="1.5" stroke-linecap="round" stroke-linejoin="round"/>
<path d="M18 16C18 16 16 11 16 8C16 4.732 13.268 2 10 2C6.732 2 4 4.732 4 8C4 12 2 16 2 16H18Z"
      stroke="black" stroke-width="1.5" stroke-linecap="round" stroke-linejoin="round"/>
</svg>
