<svg viewBox="0 0 21 21" fill="none" xmlns="http://www.w3.org/2000/svg">
<path d="M7.69446 7.72333H13.6945M7.69446 7.72333V13.7233M7.69446 7.72333H4.69446C3.03761 7.72333 1.69446 6.38018 1.69446 4.72333C1.69446 3.06648 3.03761 1.72333 4.69446 1.72333C6.35131 1.72333 7.69446 3.06648 7.69446 4.72333V7.72333ZM13.6945 7.72333V13.7233M13.6945 7.72333V4.72333C13.6945 3.06648 15.0376 1.72333 16.6945 1.72333C18.3514 1.72333 19.6945 3.06648 19.6945 4.72333C19.6945 6.38018 18.3514 7.72333 16.6945 7.72333H13.6945ZM13.6945 13.7233H7.69446M13.6945 13.7233H16.6945C18.3514 13.7233 19.6945 15.0664 19.6945 16.7233C19.6945 18.3802 18.3514 19.7233 16.6945 19.7233C15.0376 19.7233 13.6945 18.3802 13.6945 16.7233V13.7233ZM7.69446 13.7233V16.7233C7.69446 18.3802 6.35131 19.7233 4.69446 19.7233C3.03761 19.7233 1.69446 18.3802 1.69446 16.7233C1.69446 15.0664 3.03761 13.7233 4.69446 13.7233H7.69446Z" stroke="#282828" stroke-width="1.5"/>
</svg>
