<svg viewBox="0 0 180 170" fill="none" xmlns="http://www.w3.org/2000/svg">
<path d="M53.0496 43.5482C52.5192 43.3245 50.9044 42.2733 49.4608 41.2112C45.8734 38.5727 44.475 38.1605 41.804 38.954C39.5488 39.6235 36.6678 39.7843 36.6678 39.2392C36.6678 39.0544 37.4082 38.6807 38.3132 38.4102C39.2181 38.1397 40.7961 37.1327 41.8199 36.1752C43.5851 34.5235 43.7064 34.4734 44.1656 35.2083C44.4319 35.6342 44.9622 35.985 45.3442 35.985C46.2303 35.9871 48.2832 37.2398 50.6007 39.1918C53.2122 41.3918 55.5619 42.3475 58.3858 42.3579C60.6338 42.3716 60.7267 42.4111 60.0793 43.0529C59.2695 43.8618 54.58 44.1939 53.0496 43.5471V43.5482ZM5.03449 90.7292C5.29122 90.5658 5.62288 89.9471 5.77145 89.3554C5.9202 88.7635 6.29325 88.0698 6.60057 87.8144C7.05591 87.4367 7.15963 87.5439 7.15963 88.397C7.15963 89.6785 7.80343 89.7723 8.17588 88.5456C8.32573 88.0514 8.92101 87.0196 9.49875 86.2516C10.4819 84.9446 10.5502 84.5747 10.5662 80.467C10.5882 75.2608 10.8411 74.5877 15.5422 67.3022C18.7142 62.3862 19.9199 60.0046 19.9199 58.6554C19.9199 58.2322 21.1367 56.5933 22.6238 55.014C24.3134 53.2197 25.8372 51.0947 26.686 49.3498C28.6813 45.2479 30.0253 43.4297 32.2386 41.8389L34.2155 40.418L35.6762 42.2013C36.4794 43.1829 38.8313 45.3341 40.9022 46.9837C42.9732 48.6332 45.6939 51.2764 46.9482 52.8577C49.5428 56.1289 54.6474 61.3298 58.8941 65.0294C62.0407 67.7706 63.7936 70.0536 64.5615 72.4103L65.0557 73.9281L67.1474 71.9491C68.8559 70.3325 69.8384 69.7805 72.5112 68.9358C76.3208 67.7319 77.6685 67.0867 78.6573 65.9935C79.3575 65.2208 79.2848 65.1123 75.4251 61.2651C68.5938 54.4545 66.3961 49.3686 65.8441 39.0921C65.5644 33.8821 65.4937 33.5402 64.3521 31.9112C63.6925 30.9711 62.3083 29.5727 61.2753 28.8053C60.0791 27.9161 59.3968 27.1063 59.3968 26.5748C59.3968 25.8209 59.1748 25.7418 57.1009 25.7713C54.4357 25.8117 51.6724 24.455 50.2079 22.3974C49.0969 20.8365 49.3877 20.5703 51.0777 21.6006C52.5573 22.5032 53.8615 22.6385 55.0354 22.0104C56.7361 21.0998 58.5599 15.6694 58.5817 11.4518C58.5991 7.606 55.5394 3.95506 51.1977 2.64779C48.397 1.8041 47.8575 1.91661 46.2243 3.68698C43.7038 6.4183 43.4246 8.52223 44.8493 14.0448C45.3287 15.9028 45.4442 17.3731 45.2574 19.231C45.1139 20.6572 44.9618 22.2382 44.9192 22.7445C44.8761 23.2508 44.4519 23.9685 43.9751 24.3404C43.4985 24.7114 43.0497 25.4639 42.9781 26.013C42.859 26.9303 42.6384 27.0307 40.2423 27.2678C36.9397 27.5946 34.8816 28.4543 32.931 30.3206C31.3785 31.8063 29.5007 35.1788 29.4934 36.4946C29.4914 36.8843 29.0857 37.3611 28.5923 37.5566C27.424 38.0172 23.5868 42.0223 21.879 44.5632C21.1416 45.66 19.4368 48.5327 18.0906 50.9464C16.7444 53.3598 15.1713 56.1569 14.5947 57.1621C14.0182 58.1665 12.5728 61.8472 11.3829 65.3404C8.62865 73.4247 6.70933 77.9778 4.72038 81.1454C2.58052 84.5533 1.66271 86.5687 1.34482 88.5576C1.10358 90.0675 1.16985 90.2675 2.02471 90.6099C3.18911 91.0759 4.41353 91.1255 5.03386 90.7304L5.03449 90.7292ZM59.1541 115.218C63.6094 113.356 64.9934 108.219 63.358 99.6156C62.0667 92.8221 62.1181 86.4794 63.5015 81.8646C64.06 80.0005 64.4498 78.4073 64.3661 78.3243C64.0665 78.0242 61.548 80.432 59.5821 82.8977C53.6111 90.3864 51.6061 99.6351 53.4497 111.185C54.0938 115.22 54.1321 115.308 55.31 115.487C57.3869 115.802 57.8313 115.77 59.1532 115.219L59.1541 115.218ZM78.7241 150.089C81.1055 148.617 82.2796 145.984 85.3097 135.321C86.214 132.139 87.3105 128.481 87.7468 127.192C89.3414 122.481 89.7327 117.341 89.8606 99.4161C89.9677 84.4549 90.4219 74.8181 91.1266 72.5985C91.2503 72.2075 91.6536 71.8874 92.023 71.886C93.1391 71.8824 96.9395 69.9434 98.7503 68.4587C100.621 66.9251 104.382 61.4259 107.599 55.5218C111.447 48.4576 114.084 45.8088 121.112 41.9527C128.87 37.6961 131.828 35.0652 136.134 28.5901C138.098 25.6383 138.53 24.6769 138.674 22.9474C138.944 19.6873 138.5 18.1124 137.072 17.2426L135.835 16.4901L133.16 17.8376C129.777 19.5424 126.781 21.9407 119.964 28.4025C116.194 31.9753 114.466 33.8928 114.309 34.6761C114.134 35.5519 113.189 36.4266 110.085 38.5872C107.885 40.1179 105.944 41.6723 105.77 42.0419C105.596 42.4115 104.019 43.8116 102.264 45.1533C98.1228 48.3204 92.5161 53.8445 90.3372 56.9043C88.0943 60.054 86.3028 63.6441 85.4588 66.6815C84.7283 69.3122 84.0995 69.6099 83.6737 67.5278C83.5263 66.806 83.1219 65.9334 82.776 65.587C82.2024 65.0138 81.9859 65.121 80.334 66.7962C79.1143 68.0336 77.7093 68.9451 76.0375 69.5826C74.0845 70.3271 73.5246 70.7289 73.4193 71.4604C73.2934 72.3361 73.3726 72.375 74.8149 72.1085C75.6559 71.9532 77.135 71.4791 78.1011 71.056C79.067 70.6328 79.9269 70.3542 80.012 70.44C80.4835 70.9114 77.3509 72.7248 74.1067 73.8581C69.7095 75.3941 68.5356 76.1504 67.8961 77.8582C67.4397 79.0781 67.4993 79.2088 69.6045 81.5903C73.2073 85.6662 77.3643 95.0477 79.9536 104.947C81.6405 111.395 81.0532 116.493 77.8795 122.955C72.2973 134.321 67.3725 145.964 67.3725 147.795C67.3725 148.687 68.7795 149.739 71.0601 150.554C73.6509 151.478 76.7863 151.29 78.7243 150.092L78.7241 150.089ZM72.1575 162.033C72.1575 161.805 71.7993 161.232 71.359 160.761C70.4272 159.761 70.364 158.655 71.1595 157.262C71.9117 155.946 71.9069 154.292 71.1524 153.662C70.6468 153.242 70.3737 153.314 69.5506 154.088C69.0053 154.601 68.3599 155.684 68.117 156.496C67.7295 157.789 67.8015 158.247 68.7001 160.21C69.6186 162.217 69.8506 162.449 70.9429 162.449C71.6129 162.449 72.1613 162.261 72.1613 162.032L72.1575 162.033ZM75.1496 163.677C74.7121 163.506 73.6066 163.451 72.6935 163.557C71.2688 163.717 70.8051 163.56 69.4242 162.451C66.3857 160.008 66.0861 156.233 68.7023 153.361L69.5348 152.447L67.6386 150.603C65.4389 148.464 65.4377 148.771 67.6761 142.106C69.6951 136.084 72.5422 129.528 75.0835 125.05C76.954 121.753 77.4529 120.419 78.3621 116.282L79.4345 111.402L78.3307 106.907C75.3818 94.8977 72.5471 87.0015 70.3031 84.5461C69.4574 83.6207 68.3482 82.3263 67.8378 81.6694C66.9523 80.5298 66.8849 80.5097 66.3632 81.2235C64.6419 83.5787 64.3823 91.087 65.749 98.9951C66.8454 105.341 66.7484 108.962 65.3993 112.077C63.7695 115.839 59.7592 118.547 56.5217 118.072C55.8936 117.978 55.2884 118.058 55.177 118.231C54.7418 118.936 56.6852 124.882 57.6459 125.785C59.6556 127.674 59.7266 131.955 57.7436 131.661C57.1047 131.567 56.8629 131.226 56.8039 130.337C56.7141 128.985 56.2134 127.501 54.5834 123.754C53.963 122.328 53.1734 120.129 52.8289 118.867C52.4843 117.606 52.0206 116.573 51.798 116.573C51.5756 116.573 50.5299 115.766 49.4749 114.778C48.4198 113.791 47.3862 112.983 47.1781 112.983C46.5964 112.983 43.5052 109.789 43.2215 108.895C43.0529 108.363 43.2591 107.821 43.8468 107.251C44.6954 106.428 44.7387 106.425 45.1846 107.144C45.4381 107.555 46.2179 108.591 46.9174 109.447C47.6169 110.303 48.2896 111.318 48.4122 111.704C48.6523 112.461 50.9434 113.995 51.3006 113.638C51.4197 113.517 51.2786 112.468 50.9918 111.305C50.2095 108.156 50.3081 98.3045 51.1563 94.8854C53.1022 87.0388 56.8759 81.0385 61.8953 77.8104C63.9794 76.4699 64.057 76.2011 63.3845 72.6531C62.9082 70.1416 61.9089 68.9643 57.2099 65.3808C52.5083 61.7953 49.6409 58.9353 46.9347 55.1325C43.6923 50.5761 42.6235 49.4752 38.7623 46.7153C35.9821 44.7283 35.3538 44.4315 34.7385 44.816C34.0243 45.2619 32.9383 46.7902 30.2741 51.0969C29.079 53.029 25.5488 55.9303 24.3931 55.9303C23.6954 55.9303 22.8139 57.3512 22.5368 58.9224C22.1179 61.2984 20.3538 64.513 16.5573 69.8184C14.6864 72.4331 12.586 75.7901 11.8898 77.2786C10.7423 79.7319 10.671 80.1003 11.1282 81.2222C12.1247 83.6674 12.0893 84.2235 10.8053 86.29C10.121 87.3907 9.44991 88.7351 9.31414 89.2764C9.05311 90.3169 8.07519 91.0371 6.92377 91.0371C6.54276 91.0371 5.88869 91.3465 5.47007 91.7268C4.41797 92.6789 1.87864 92.6254 0.771977 91.6196C-0.883077 90.1264 0.246403 85.1754 2.98487 81.9195C4.13294 80.5544 8.13296 71.1651 10.7453 63.7027C11.6672 61.0699 12.8373 58.1934 13.3458 57.3108C13.8543 56.4282 14.9657 54.0943 15.8156 52.1246C18.53 45.8332 22.5247 40.4014 26.2967 37.8727C28.5665 36.3507 29.0971 35.6896 29.0971 34.3828C29.0971 32.6287 31.0183 29.3171 32.7936 28.0109C33.698 27.3453 34.6193 26.8003 34.8407 26.8003C35.0621 26.8003 37.0734 25.8923 39.3102 24.7834C43.7075 22.6028 43.6217 22.7108 44.0854 18.7638C44.2656 17.2309 44.1174 15.5101 43.6124 13.1953C42.6868 8.96809 42.7258 7.06515 43.781 4.99617C44.6739 3.24537 46.9826 1.18256 48.8779 0.442551C50.5491 -0.209587 54.5777 -0.126603 56.3039 0.596598C58.5314 1.52999 61.5795 4.59542 62.6379 6.96678C63.4071 8.6904 63.562 9.69598 63.5422 12.8367C63.5248 16.0758 63.3354 17.1149 62.2607 19.9869C61.5689 21.8351 61.0601 23.404 61.1295 23.4734C61.1955 23.5403 62.0499 24.0158 63.0209 24.5233C64.3045 25.1942 65.0215 25.931 65.6479 27.2203C66.8141 29.621 68.0277 33.9473 68.5516 37.571C68.8274 39.4805 69.4814 41.5736 70.3579 43.3555C71.8983 46.4867 76.2065 51.6231 80.502 55.4495L83.3301 57.9686L88.2141 53.0058C93.2111 47.9281 97.472 44.6585 105.787 39.5211C109.227 37.3957 110.171 36.5859 111.474 34.6434C113.268 31.9683 121.584 23.7927 125.522 20.8318C128.81 18.3596 132.759 16.2444 135.266 15.6133C137.527 15.0428 137.755 15.1606 141.544 18.8146L144.131 21.3111L145.731 20.4594C146.61 19.9907 149.03 18.3083 151.108 16.7209C154.317 14.2698 155.066 13.4734 156.072 11.4407C157.069 9.42485 157.281 9.19785 157.412 10.0017C157.507 10.5709 157.227 11.3771 156.727 11.9966C156.265 12.5684 155.269 13.9585 154.516 15.0854C152.954 17.421 150.658 19.5118 147.64 21.3458C146.495 22.0421 145.553 22.8278 145.547 23.093C145.519 24.0197 149.026 25.6709 151.417 25.8609C154.558 26.1099 154.884 25.8077 154.95 22.5291C154.996 20.634 155.257 19.3381 155.841 18.2228C159.108 11.9854 159.995 9.78652 159.938 8.06331C159.864 5.87675 159.274 5.1397 158.469 6.23097C157.905 6.99433 157.898 6.99434 157.898 6.21722C157.898 5.25705 158.621 4.46533 159.498 4.46533C160.667 4.46533 162.232 6.57435 162.707 8.79091C163.287 11.5012 163.093 12.658 161.33 16.925C160.047 20.0315 159.892 20.792 159.892 23.9525C159.892 26.9691 159.764 27.6578 159.038 28.5811C158.266 29.5627 157.992 29.6497 156.147 29.4917C155.027 29.3979 153.104 29.0807 151.875 28.7886C149.791 28.2971 149.489 28.324 147.381 29.1797C144.502 30.3488 140.715 33.0556 136.165 37.1972C131.635 41.3206 127.951 43.765 123.373 45.6858C117.596 48.1095 116.508 49.1473 110.844 57.6386C108.102 61.7482 104.699 66.4673 103.282 68.1255C101.089 70.6901 96.1543 75.2847 93.5531 77.1837C92.8455 77.702 92.8089 78.7951 92.7548 100.837L92.6998 123.948L91.186 129.733C89.3332 136.813 84.6302 151.01 83.0586 154.268C81.8068 156.862 81.4259 157.02 78.2448 156.269C77.0388 155.984 76.949 156.035 76.949 156.991C76.949 158.438 77.7069 159.934 78.8047 160.654C79.9562 161.409 80.0469 163.051 78.9692 163.628C78.0809 164.104 76.3115 164.125 75.1563 163.681L75.1496 163.677Z" fill="black"/>
<path d="M162.735 55.9612C162.333 54.9016 162.329 52.6003 162.728 52.4005C162.946 52.2931 163.182 52.7859 163.25 53.5004C163.383 54.8886 163.674 55.0892 164.438 54.321C164.721 54.0377 164.916 54.0107 164.916 54.2538C164.916 54.4795 164.472 55.0824 163.931 55.5941C163.168 56.3153 162.899 56.3985 162.735 55.9634L162.735 55.9612ZM165.139 56.1008C165.31 55.7154 165.526 54.6355 165.62 53.7004C165.73 52.5925 165.985 52 166.349 52C167.01 52 167.094 53.6972 166.489 54.8328C166.165 55.4438 166.216 55.6667 166.722 55.8628C167.24 56.0629 167.264 56.1811 166.84 56.451C166.547 56.6363 165.976 56.7921 165.57 56.7948C165.012 56.7985 164.907 56.6283 165.141 56.1005L165.139 56.1008ZM166.506 58.486C166.506 58.3128 167.4 57.2855 168.493 56.2032C169.937 54.7733 170.599 54.3556 170.917 54.6751C171.495 55.2552 170.89 56.3868 169.27 57.7579C168.101 58.7477 166.506 59.1672 166.506 58.4857V58.486ZM157.355 59.8799C157.355 59.2984 160.024 56.5506 160.309 56.8376C160.535 57.0646 158.063 60.3659 157.654 60.3865C157.49 60.4003 157.355 60.1676 157.355 59.8803L157.355 59.8799ZM167.816 89.1389C169.83 88.1129 172.223 85.5764 173.312 83.3156C175.129 79.5416 174.099 74.6104 170.947 71.9888C167.521 69.1405 164.566 69.4799 160.947 73.1371C158.195 75.9191 157.182 78.6401 157.167 83.2944C157.159 86.3132 157.194 86.4214 158.578 87.8181C161.18 90.4362 164.374 90.8927 167.816 89.1381V89.1389ZM129.902 113.696C129.902 113.524 129.409 112.94 128.808 112.396C128.205 111.851 127.153 110.694 126.467 109.821C125.307 108.345 125.149 108.269 124.18 108.714C122.793 109.349 122.864 109.756 124.592 111.088C127.51 113.336 129.902 114.512 129.902 113.698L129.902 113.696ZM142.236 113.108C142.236 112.884 141.971 112.928 141.639 113.202C141.311 113.476 141.042 113.881 141.042 114.099C141.042 114.324 141.307 114.278 141.639 114.005C141.968 113.731 142.236 113.327 142.236 113.107V113.108ZM139.063 113.888C141.193 112.755 141.442 112.134 139.981 111.598C137.518 110.694 136.115 109.728 134.829 108.048C134.089 107.081 133.481 106.091 133.477 105.848C133.45 104.376 132.776 104.415 129.972 106.048C128.402 106.961 127.119 107.911 127.121 108.158C127.125 108.764 129.707 111.993 130.808 112.773C133.962 115.009 136.351 115.331 139.063 113.889L139.063 113.888ZM136.566 132.827C137.75 130.743 137.696 129.279 136.361 127.279C133.764 123.392 126.029 119.607 120.68 119.607C118.403 119.607 117.506 118.996 119.26 118.64C121.473 118.191 123.857 118.072 125.133 118.348C126.991 118.749 134.97 118.213 136.468 117.592L137.662 117.093L136.667 116.79C136.12 116.623 134.845 116.468 133.834 116.446C132.056 116.406 127.993 115.305 126.329 114.41C125.882 114.169 124.513 113.15 123.286 112.146C121.319 110.534 120.945 110.37 120.109 110.753C118.764 111.37 115.623 114.361 114.952 115.665C114.148 117.231 114.221 120.519 115.082 121.55C115.465 122.008 118.016 123.674 120.752 125.253C123.487 126.832 127.874 129.535 130.5 131.258C133.126 132.982 135.364 134.394 135.473 134.397C135.583 134.401 136.075 133.694 136.567 132.826L136.566 132.827ZM158.062 138.587C159.209 137.78 159.177 137.148 157.878 134.919C156.825 133.113 156.819 133.057 157.449 131.297C158.118 129.426 158.017 128.409 157.162 128.409C156.104 128.409 155.563 129.71 155.664 132.015C155.755 134.029 155.618 134.476 154.57 135.809C153.913 136.641 153.376 137.465 153.376 137.642C153.376 138.227 155.124 139.21 156.161 139.21C156.72 139.21 157.575 138.931 158.062 138.589L158.062 138.587ZM139.243 140.346C140.242 139.555 140.318 139.307 140.133 137.446C139.876 134.871 140.557 133.404 142.761 131.792C144.475 130.538 144.966 129.124 143.767 128.892C142.909 128.726 140.462 130.9 139.925 132.307C139.694 132.913 139.224 134.423 138.884 135.662C138.222 138.067 137.256 139.032 135.073 139.471C133.519 139.782 133.559 140.295 135.175 140.763C137.225 141.358 138.074 141.27 139.244 140.345L139.243 140.346ZM171.505 165.809C171.311 164.77 171.392 164.346 171.819 164.181C172.136 164.06 172.488 163.607 172.6 163.177C172.756 162.572 172.333 162.089 170.749 161.056C169.619 160.32 168.158 159.142 167.501 158.438C166.326 157.179 166.308 157.096 166.366 153.086C166.412 150.278 166.817 147.085 167.687 142.811C168.621 138.221 168.997 135.156 169.133 131.009C169.235 127.929 169.603 124.091 169.954 122.481C170.337 120.728 170.505 118.71 170.376 117.454C170.223 115.97 170.379 114.717 170.906 113.18C171.962 110.106 171.884 106.697 170.668 102.829C169.901 100.391 169.757 99.4238 170.071 98.8344C170.299 98.4074 170.484 97.3067 170.484 96.3901C170.484 95.0282 170.237 94.4749 169.131 93.3633C167.814 92.0392 167.692 92.0032 164.543 92.0032C162.71 92.0032 160.744 91.7655 160.008 91.4567C158.224 90.7072 156.694 88.7567 155.971 86.3099C155.213 83.7434 155.214 82.0918 155.975 78.8423C156.305 77.4354 156.484 76.1935 156.374 76.0826C155.963 75.669 152.777 78.2824 150.626 80.7982C149.402 82.2298 146.056 85.746 143.191 88.6121C139.018 92.7871 137.739 94.3384 136.758 96.4134C134.907 100.33 134.775 101.661 135.971 104.348C136.523 105.589 137.161 107.081 137.389 107.664C137.616 108.246 138.432 109.206 139.202 109.797C140.504 110.796 140.709 110.836 142.114 110.381C142.945 110.112 143.861 109.828 144.148 109.75C144.48 109.669 144.625 109.132 144.546 108.306L144.42 107.003L148.625 107.147C152.161 107.268 152.936 107.188 153.499 106.618C153.866 106.249 154.168 105.803 154.168 105.628C154.168 105.021 152.551 103.249 151.771 102.999C150.287 102.525 150.917 101.887 152.64 102.121C154.879 102.422 159.589 104.818 161.81 106.784L163.626 108.391L163.512 117.499C163.448 122.508 163.242 127.327 163.052 128.207C162.862 129.087 162.809 134.128 162.931 139.409C163.055 144.69 163.023 150.361 162.84 152.011C161.605 163.809 161.622 162.665 162.648 164.52C163.718 166.455 164.711 166.758 164.711 165.148C164.711 164.563 164.838 163.956 164.991 163.8C165.614 163.169 168.105 164.116 169.745 165.607C170.697 166.472 171.54 167.188 171.619 167.197C171.711 167.211 171.647 166.582 171.501 165.808L171.505 165.809ZM171.264 168.183C168.397 165.221 166.384 164.457 165.956 166.17C165.536 167.858 162.528 167.881 162.528 166.198C162.528 165.912 162.057 165.114 161.48 164.425C160.311 163.029 160.311 163.194 161.516 154.214C162.229 148.908 162.274 144.483 161.7 136.343C161.368 131.625 161.385 129.335 161.764 126.41C162.349 121.958 162.359 109.771 161.783 109.067C161.272 108.449 152.593 109.04 151.95 109.737C151.71 109.995 151.025 111.074 150.424 112.135L149.334 114.063L154.282 118.936C158.587 123.176 159.297 124.061 159.746 125.741C160.216 127.499 160.186 127.859 159.407 129.749C158.31 132.411 158.329 132.889 159.628 135.467L160.703 137.603L159.886 138.703C158.831 140.124 156.371 140.658 153.824 140.02C151.014 139.316 150.096 138.58 150.385 137.261C150.568 136.419 149.985 134.812 147.891 130.386C145.501 125.334 144.871 124.346 142.871 122.509C141.613 121.354 140.464 120.412 140.317 120.417C140.17 120.42 139.157 120.657 138.064 120.942L136.078 121.46L139.085 122.914C141.084 123.881 142.717 125.041 143.956 126.372C146.497 129.104 146.452 129.976 143.631 132.594C141.464 134.606 141.443 134.648 141.443 136.939C141.443 138.211 141.177 139.768 140.854 140.399C139.706 142.63 135.414 142.965 133.165 140.996C131.806 139.808 132.263 138.86 134.503 138.228C136.929 137.544 136.704 136.723 133.622 135.019C132.142 134.202 128.751 132.13 126.085 130.415C123.42 128.7 120.034 126.62 118.563 125.792C117.091 124.965 115.192 123.622 114.342 122.809C112.916 121.445 112.797 121.164 112.797 119.148C112.797 115.562 114.997 112.027 118.761 109.563L119.743 108.92L117.364 105.979C113.36 101.029 111.86 99.6048 110.651 99.6048C108.543 99.6048 107.099 98.0464 108.652 97.4473C110.678 96.6657 112.449 98.0865 120.005 106.547L121.381 108.088L122.858 107.467C123.671 107.126 124.335 106.741 124.335 106.611C124.335 106.476 123.995 105.704 123.58 104.885C121.425 100.638 120.74 96.1622 121.206 89.365C121.454 85.7465 121.657 85.2028 122.76 85.2028C124.178 85.2028 124.246 88.0859 122.864 89.6699C122.063 90.5898 122.1 95.9354 122.928 99.1575C123.861 102.777 125.363 106.006 126.115 106.006C126.932 106.006 130.533 104.191 132.178 102.95C133.023 102.311 133.611 101.41 133.906 100.294C134.837 96.7784 137.064 93.3335 141.383 88.7298C143.719 86.2398 146.458 83.1224 147.47 81.8021C148.482 80.482 149.778 78.9654 150.349 78.4319C151.652 77.2165 151.65 76.783 150.342 75.571C148.506 73.8722 147.014 71.5209 147.014 70.3244C147.014 68.5917 148.293 66.4033 150.54 64.2897C153.111 61.8711 154.004 61.8286 151.804 64.2226C150.881 65.2297 149.684 67.024 149.143 68.2112L148.16 70.3697L149.163 72.082C149.714 73.0234 150.707 74.387 151.368 75.1118C152.432 76.2774 152.675 76.3755 153.473 75.9605C155.08 75.1239 155.767 74.2925 155.767 73.1811C155.767 71.5912 154.889 71.0046 153.329 71.5516C150.194 72.6501 149.649 71.5505 152.744 70.3698C155.319 69.3868 156.166 68.5464 156.166 66.9718C156.166 65.8612 156.397 65.5523 157.769 64.8335C159.777 63.782 161.374 63.7739 164.34 64.793C167.195 65.7814 167.934 65.6391 165.979 64.4774C164.583 63.6488 164.184 62.7063 164.825 61.7493C165.163 61.2444 170.477 57.9848 170.961 57.9848C171.139 57.9848 171.286 57.7149 171.286 57.3845C171.286 57.0542 171.465 56.7842 171.684 56.7842C172.983 56.7842 170.246 59.5569 167.141 61.387C165.084 62.5983 164.988 63.148 166.735 63.714C167.378 63.9208 168.128 64.27 168.401 64.4889C169.176 65.1026 168.986 66.27 168.074 66.5099C167.303 66.7126 166.514 66.5503 161.631 65.1567C159.802 64.6357 159.7 64.6518 158.776 65.6011C157.953 66.4472 157.557 67.8612 157.715 69.3956C157.743 69.6199 158.372 70.1369 159.122 70.5438C160.466 71.2716 160.503 71.2703 161.682 70.4229C163.511 69.1135 165.98 68.3802 168.451 68.4139C178.404 68.5495 182.568 80.1972 175.272 87.4939L173.564 89.2014L173.911 91.8945C174.437 95.9997 174.312 99.2416 173.547 101.255C173.016 102.653 172.95 103.328 173.265 104.159C173.927 105.91 173.738 109.434 172.849 111.9C172.22 113.646 171.998 115.331 171.92 118.991C171.865 121.697 171.598 124.316 171.317 124.992C171.027 125.687 170.77 128.387 170.703 131.393C170.611 135.322 170.28 138.111 169.326 142.795C168.63 146.206 167.958 150.722 167.83 152.83C167.612 156.436 167.651 156.714 168.483 157.495C169.706 158.641 173.583 160.65 175.259 161.008C177.148 161.409 178.256 162.206 179.224 163.854C180.241 165.588 180.258 166.417 179.278 166.674C178.861 166.781 178.43 167.216 178.321 167.634C178.012 168.822 176.991 168.959 175.415 168.025C173.778 167.054 173.404 167.149 174.055 168.374C174.541 169.288 174.311 170 173.532 170C173.263 170 172.244 169.175 171.268 168.168L171.264 168.183Z" fill="black"/>
</svg>
