<svg viewBox="0 0 80 80" fill="none" xmlns="http://www.w3.org/2000/svg">
<path d="M30 13.333H20L13.333 46.667H20L21.335 40H28.665L30 46.667H36.667L30 13.333ZM22.666 33.333L25 21.667L27.334 33.333H22.666Z" fill="black"/>
<path d="M66.667 46.667V40H58.333V33.333H51.667V40H43.333V46.667H56.667C56.667 54.03 50.696 60 43.333 60V66.667C48.506 66.667 53.203 64.688 56.751 61.465L61.953 66.667L66.667 61.953L60.918 56.201C62.458 53.369 63.333 50.12 63.333 46.667H66.667V46.667Z" fill="black"/>
<path fill-rule="evenodd" clip-rule="evenodd" d="M70 5H10C7.23858 5 5 7.23858 5 10V70C5 72.7614 7.23858 75 10 75H70C72.7614 75 75 72.7614 75 70V10C75 7.23858 72.7614 5 70 5ZM10 0C4.47715 0 0 4.47715 0 10V70C0 75.5229 4.47715 80 10 80H70C75.5229 80 80 75.5229 80 70V10C80 4.47715 75.5229 0 70 0H10Z" fill="black"/>
</svg>
