<svg width="65" height="65" viewBox="0 0 65 65" fill="none" xmlns="http://www.w3.org/2000/svg">
<path d="M28.557 3.00926C21.9136 4.18889 15.8677 7.99259 11.6618 13.5778C6.04597 21.0889 4.87501 31.5852 8.69854 40.4444C11.1838 46.1981 15.8199 51.013 21.6269 53.8296C27.1471 56.5259 32.9302 57.2 38.9761 55.8519C49.2519 53.5889 57.4246 45.0426 59.4081 34.4981C60.0055 31.2481 59.7666 25.4222 58.9302 22.5093C58.1416 19.7889 56.0864 15.4796 54.6526 13.6019C50.7574 8.40185 45.739 5.05555 39.3107 3.3463C36.8015 2.6963 31.3052 2.5037 28.557 3.00926ZM34.1967 6.06667C34.5074 6.98148 34.818 7.7037 34.8897 7.7037C34.9853 7.7037 35.6305 6.71667 36.3474 5.51296L37.6379 3.32222L38.0919 5.87407C38.3548 7.27037 38.6177 8.42593 38.6894 8.40185C38.761 8.40185 39.5496 7.53518 40.4577 6.47593L42.0588 4.55V7.07778C42.0588 8.47407 42.1305 9.62963 42.25 9.62963C42.3456 9.62963 43.2298 8.97963 44.2096 8.18518C45.1894 7.41481 46.0258 6.81296 46.0735 6.86111C46.1691 6.95741 45.8585 9.14815 45.5 10.8815C45.4283 11.2667 45.4761 11.5556 45.5956 11.5556C45.739 11.5556 46.7666 11.0259 47.9136 10.3519C50.2316 9.0037 50.136 8.83518 48.989 12.0852C48.6305 13.1204 48.3916 13.987 48.4394 14.0352C48.4871 14.0833 49.3474 13.8426 50.375 13.4815C53.5772 12.35 53.4099 12.2296 52.0717 14.613C50.7813 16.9481 50.7096 17.1889 51.3309 16.9963C51.546 16.9241 52.3824 16.8278 53.171 16.7556L54.6048 16.6352L53.4099 16.8519C50.8769 17.3574 51.0441 17.1889 51.8805 18.4889C52.2629 19.1148 52.6691 19.5963 52.7408 19.5963C52.8125 19.5722 53.4099 18.9222 54.0313 18.1519C54.8677 17.1648 55.1066 16.7074 54.8916 16.563C54.7004 16.4426 54.796 16.3704 55.1544 16.3704C55.4412 16.3704 55.6802 16.4185 55.6802 16.4667C55.6802 16.5148 55.0349 17.3574 54.2463 18.3444C53.4577 19.3074 52.8125 20.1741 52.8125 20.2704C52.8125 20.3907 53.9357 20.463 55.3456 20.463H57.8548L56.0625 22.0519C55.0588 22.9426 54.2463 23.737 54.2463 23.8333C54.2463 23.9296 55.3456 24.2426 56.6838 24.4833L59.0974 24.9407L56.9228 26.2407C55.7041 26.963 54.7243 27.613 54.7243 27.6852C54.7243 27.7574 55.7519 28.1667 56.9945 28.6241C58.4761 29.1778 59.193 29.5389 59.0496 29.6833C58.8824 29.8519 58.6912 29.8278 58.5 29.6833C58.1894 29.4185 55.25 28.1667 54.9871 28.1667C54.8677 28.1667 54.8438 30.6944 54.9394 30.9833C54.9633 31.0315 55.6802 30.7907 56.5644 30.4537C57.4246 30.1167 58.1894 29.8759 58.2371 29.9241C58.2849 29.9722 57.5202 30.3333 56.5166 30.7185C55.5368 31.1037 54.7243 31.4648 54.7243 31.537C54.7243 31.6093 55.6324 32.187 56.7555 32.837C57.8548 33.5111 58.7151 34.0889 58.6673 34.137C58.6195 34.1852 57.568 34.45 56.3732 34.6907C55.1544 34.9556 54.1269 35.1963 54.0791 35.2444C54.0313 35.2926 54.3419 35.6296 54.7721 35.9907C55.2022 36.3519 56.0625 37.1222 56.6838 37.6759L57.7831 38.687L55.3695 38.7352C54.0313 38.7593 52.9081 38.8315 52.8603 38.8796C52.7886 38.9278 53.4577 39.8426 54.3419 40.9259C55.2261 41.9852 55.8713 42.8519 55.7758 42.8519C55.6802 42.8519 54.6048 42.6833 53.3621 42.4667C52.1195 42.25 51.0441 42.1296 50.9963 42.2019C50.9246 42.2741 51.1397 42.8278 51.4743 43.4296C51.8088 44.0315 52.3585 45.0185 52.693 45.6204L53.3144 46.6796L50.9963 45.8611C49.7059 45.4037 48.5827 45.0907 48.4871 45.1389C48.3916 45.2111 48.5349 45.837 48.7978 46.5111C49.3474 47.9796 49.921 49.8333 49.8254 49.8333C49.7776 49.8333 48.8934 49.3519 47.8419 48.75C45.5956 47.4741 45.3088 47.4259 45.5 48.3407C45.8346 50.05 46.1691 52.2648 46.0735 52.3611C46.0258 52.4093 45.2133 51.8074 44.2813 51.013C43.3254 50.2426 42.4412 49.5926 42.3217 49.5926C42.1783 49.5926 42.0349 50.6278 42.011 52.0241L41.9394 54.4315L40.386 52.6259C39.5258 51.6148 38.761 50.7963 38.6894 50.7963C38.6177 50.7963 38.3548 51.8796 38.1158 53.2037C37.9008 54.5278 37.6618 55.6111 37.614 55.6111C37.5662 55.6111 36.9688 54.6963 36.2996 53.5648C35.1048 51.6148 34.6746 51.1574 34.6269 51.8074C34.6269 51.9759 34.2684 53.0352 33.8383 54.1426L33.0496 56.1648L32.1655 53.8537C31.6636 52.5778 31.1857 51.5185 31.114 51.5185C31.0184 51.5185 30.421 52.4574 29.7758 53.5889C29.1544 54.7204 28.5809 55.6111 28.5331 55.5389C28.4853 55.4907 28.2463 54.4556 27.9835 53.2278C27.7445 52.0241 27.4816 50.9407 27.386 50.8685C27.2905 50.7722 27.0515 50.9648 26.8364 51.2778C26.2868 52.0722 24.3272 54.263 24.0883 54.3593C23.7298 54.5278 23.8971 54.263 24.9963 53.0833C25.5938 52.4093 26.2868 51.5907 26.5258 51.2537L27.0037 50.6278L25.3787 50.0259L23.7776 49.4241L21.9375 50.9407C20.9099 51.7833 20.0496 52.4815 20.0019 52.4815C19.9541 52.4815 20.0735 51.4463 20.2408 50.1704C20.432 48.8944 20.5276 47.8111 20.4559 47.7389C20.3842 47.6667 19.4283 48.1241 18.3052 48.7259C17.1581 49.3519 16.25 49.7852 16.25 49.6889C16.25 49.6167 16.5846 48.5574 16.9669 47.3778C17.3732 46.1741 17.6599 45.1389 17.6121 45.0907C17.5405 45.0426 16.4651 45.3796 15.2224 45.837L12.9283 46.6556L13.5496 45.4278C13.8842 44.7296 14.4338 43.7667 14.7445 43.2611C15.0552 42.7315 15.2702 42.2741 15.1985 42.2019C15.1269 42.1296 14.0515 42.25 12.761 42.4667C11.4945 42.6833 10.4191 42.8278 10.3713 42.8037C10.3235 42.7556 10.9927 41.8648 11.853 40.8296C12.7133 39.7944 13.3824 38.9278 13.3346 38.8796C13.2868 38.8315 12.1397 38.7593 10.7776 38.7352L8.29229 38.687L9.10479 37.9407C9.55884 37.5315 10.443 36.737 11.0644 36.1833L12.2114 35.1963L11.0644 34.9556C10.443 34.8111 9.29597 34.5944 8.53127 34.4259L7.14524 34.137L9.12869 32.9333C10.228 32.2833 11.1838 31.6574 11.2794 31.5611C11.3989 31.4648 10.443 31.0074 9.20038 30.5741C7.95774 30.1167 6.93016 29.6593 6.93016 29.587C6.93016 29.4907 7.76656 29.1296 8.79413 28.7444C11.8291 27.6611 11.7813 27.7815 9.70222 26.5537C8.69854 25.9519 7.90994 25.4222 7.95774 25.35C8.02943 25.3019 8.79413 25.687 9.67832 26.2407C10.5625 26.7944 11.375 27.1556 11.4706 27.0352C11.5662 26.9389 11.7335 26.2648 11.8052 25.5667L11.9724 24.2667L10.9449 24.4352C10.3713 24.5315 9.39156 24.7481 8.72244 24.9407C8.07722 25.1093 7.4559 25.1574 7.33641 25.0611C7.24082 24.9648 8.2445 24.6759 9.55884 24.4352C10.8732 24.1944 11.9485 23.9296 11.9485 23.8333C11.9485 23.737 11.136 22.9667 10.1324 22.1241L8.29229 20.5833L10.8493 20.5111C12.2353 20.487 13.3824 20.3907 13.3824 20.3185C13.3824 20.2704 12.6655 19.3315 11.8052 18.2963C10.9449 17.237 10.3713 16.3704 10.5625 16.3704C10.7298 16.3704 11.853 16.5389 13.0239 16.7074C14.2188 16.9 15.1985 17.0204 15.2463 16.9963C15.2702 16.9481 14.7684 15.9611 14.0993 14.8056C13.4541 13.6259 12.9522 12.6389 13 12.5907C13.0478 12.5426 14.1232 12.8796 15.3897 13.337C16.6563 13.7944 17.6838 14.1074 17.6838 14.0111C17.6838 13.9148 17.3971 13.0481 17.0864 12.0611C16.7519 11.0741 16.5368 10.2315 16.5846 10.1833C16.6324 10.1111 16.943 10.8815 17.2537 11.8444C17.5883 12.8074 17.9467 13.6019 18.0662 13.6019C18.2096 13.6019 18.7592 13.2167 19.3088 12.7352L20.3364 11.8444L18.5441 10.8574C17.5644 10.3278 16.6324 9.87037 16.489 9.87037C16.3695 9.87037 16.25 9.75 16.25 9.62963C16.25 9.26852 16.3695 9.31667 18.4246 10.4963C19.5 11.0981 20.4081 11.5315 20.4798 11.4593C20.5993 11.3389 20.1691 7.82407 19.9063 6.88518C19.8346 6.62037 20.5276 7.0537 21.7463 8.06481L23.7059 9.70185L25.5221 9.05185C26.5258 8.69074 27.4099 8.28148 27.5055 8.16111C27.6011 8.01667 27.7923 7.0537 27.9596 6.04259C28.4614 3.12963 28.4375 3.12963 29.7519 5.53704C30.421 6.71667 31.0184 7.7037 31.0901 7.7037C31.1618 7.7037 31.6397 6.64444 32.1416 5.36852C33.193 2.6963 33.0735 2.64815 34.1967 6.06667ZM26.5735 7.58333C26.8364 7.96852 26.3585 7.55926 25.4743 6.62037C24.614 5.70555 23.8971 4.83889 23.8971 4.69444C23.921 4.42963 25.7849 6.45185 26.5735 7.58333ZM24.0644 8.47407C24.0166 9.05185 23.9688 8.64259 23.9688 7.58333C23.9688 6.52407 24.0166 6.06667 24.0644 6.54815C24.1121 7.0537 24.1121 7.92037 24.0644 8.47407ZM24.0644 52.5296C24.0166 53.1074 23.9688 52.6981 23.9688 51.6389C23.9688 50.5796 24.0166 50.1222 24.0644 50.6037C24.1121 51.1093 24.1121 51.9759 24.0644 52.5296Z" fill="black"/>
<path d="M32.7151 4.47778C31.8787 6.71667 31.5441 7.58333 31.5441 7.63148C31.5441 7.67963 32.1893 7.7037 32.978 7.7037C33.7666 7.7037 34.4118 7.60741 34.4118 7.48704C34.4118 7.2463 33.2169 4.02037 33.0735 3.87593C33.0257 3.82778 32.8824 4.09259 32.7151 4.47778Z" fill="black"/>
<path d="M28.1508 6.28334L27.7923 8.23334L28.6526 8.08889C29.1305 8.01667 29.7519 7.94445 30.0625 7.94445C30.3493 7.94445 30.5883 7.82408 30.5883 7.67963C30.5883 7.36667 28.8438 4.33334 28.6526 4.33334C28.5809 4.33334 28.3658 5.2 28.1508 6.28334Z" fill="black"/>
<path d="M36.2996 6.11481L35.2482 7.94444H33.193C25.9522 7.94444 19.2371 11.6037 15.2941 17.6463C12.5938 21.763 11.5662 25.5907 11.7574 30.8148C11.829 32.4759 11.829 33.6074 11.7813 33.3426C11.4467 31.6333 11.6379 31.6815 9.79779 32.813C8.88971 33.3667 8.125 33.8963 8.125 33.9685C8.125 34.0648 8.79412 34.2574 9.60662 34.4019C10.443 34.5704 11.3033 34.7389 11.5423 34.8111C11.829 34.9074 11.9485 34.787 11.9724 34.3778C11.9963 33.9444 12.0441 33.9926 12.2114 34.6426C12.3548 35.0759 12.4265 35.4611 12.3787 35.4852C11.8768 35.7982 9.31985 38.1333 9.31985 38.3019C9.31985 38.4222 10.1801 38.5185 11.2316 38.5185C12.2831 38.5185 13.1434 38.4704 13.1434 38.4222C13.1434 38.3741 12.9761 37.8685 12.7849 37.3148C12.1397 35.437 12.4265 35.7259 13.2629 37.7241C16.4173 45.5 23.7298 50.7 32.1415 51.2056C36.3713 51.4463 41.1507 50.1463 44.6875 47.787C46.9577 46.2945 49.8015 43.4537 51.1397 41.3593C52.3107 39.5056 52.6691 39.1926 51.7849 40.7815L51.1875 41.8407L51.9522 41.9852C52.3585 42.0574 53.2904 42.1778 54.0074 42.2741L55.2978 42.4426L53.9118 40.8537L52.5257 39.2648L53.1471 37.387C54.9871 31.6574 55.0588 27.7333 53.4099 22.7259C52.4063 19.6926 51.0202 17.3093 48.9173 15.0222C45.7629 11.6037 41.9393 9.34074 37.7574 8.42593C35.8695 8.01667 35.7261 7.96852 36.8732 8.06481L38.2831 8.18519L38.1397 7.53519C38.068 7.15 37.9485 6.42778 37.8529 5.89815C37.5662 4.14074 37.4228 4.16481 36.2996 6.11481ZM31.7114 9.43704C31.9982 9.79815 31.6875 13.6741 31.3768 13.987C30.9467 14.4204 30.421 13.9389 30.0625 12.8074L29.6801 11.6759L29.6563 12.687C29.6324 14.0111 29.4412 14.4444 28.8915 14.4444C28.3897 14.4444 28.318 13.7463 28.5809 11.0981C28.7243 9.77407 28.796 9.62963 29.2978 9.62963C29.6801 9.62963 29.9908 9.87037 30.2776 10.4L30.7077 11.1944L30.7794 10.4722C30.875 9.50926 31.0184 9.14815 31.2574 9.14815C31.3768 9.14815 31.5919 9.29259 31.7114 9.43704ZM35.989 9.75C36.1085 10.2315 35.9412 10.6407 35.1526 11.6278L34.1967 12.8796L34.7941 12.9519C35.2004 13 35.3676 13.1685 35.3199 13.4333C35.2482 13.7463 34.9853 13.8426 34.0533 13.8426C32.4761 13.8426 32.4044 13.3852 33.6949 11.7241L34.6985 10.4722L34.0772 10.4C33.671 10.3519 33.4559 10.1833 33.4559 9.89444C33.4559 9.26852 33.671 9.14815 34.7941 9.14815C35.7022 9.14815 35.8456 9.22037 35.989 9.75ZM39.9081 10.8574C39.9081 11.4833 39.1673 14.5167 38.9522 14.7574C38.8566 14.8537 38.6176 14.8778 38.3787 14.7815C38.068 14.6611 37.9963 14.4685 38.0919 14.0593C38.2831 13.337 37.7813 13.2889 37.1599 13.963C36.8493 14.3 36.6342 14.3722 36.3235 14.2037C35.9173 13.987 35.9173 13.9148 36.2518 13C36.4669 12.4704 36.7537 12.037 36.8971 12.037C37.0643 12.037 37.5901 11.5556 38.068 10.9537C38.8327 10.0389 39.0478 9.89444 39.454 10.1111C39.693 10.2556 39.9081 10.5926 39.9081 10.8574ZM26.7647 10.9537C26.7647 11.387 26.5974 11.5796 26.1673 11.7C25.4026 11.8926 25.5221 12.4222 26.2868 12.3259C26.8125 12.2778 27.2188 12.6148 27.2426 13.0722C27.2426 13.1685 26.9798 13.3852 26.6452 13.5296C26.3107 13.6741 26.0478 13.9389 26.0478 14.1315C26.0478 14.3963 26.1434 14.3963 26.5257 14.2037C27.0754 13.9148 27.4816 14.0593 27.4816 14.5889C27.4816 15.0222 25.9761 15.7685 25.4982 15.5759C24.9485 15.3593 24.3033 13.8426 24.4945 13.2167C24.5901 12.9278 24.5662 12.6389 24.4228 12.5426C24.3033 12.4704 24.136 12.1815 24.0882 11.9167C24.0404 11.5556 24.3033 11.2907 25.2114 10.8093C26.5257 10.087 26.7647 10.1111 26.7647 10.9537ZM43.2776 11.8204C43.7316 12.0611 43.7077 12.1333 42.6324 13.4093L41.4853 14.7574L42.011 15.1185C42.5129 15.4556 42.5129 15.5037 42.1544 15.913C41.796 16.3222 41.7243 16.3222 40.9596 15.9611C40.0276 15.5037 39.7886 15.0222 40.1949 14.4685C40.9118 13.5537 42.6324 11.5556 42.7279 11.5556C42.7757 11.5556 43.0147 11.6759 43.2776 11.8204ZM22.9412 12.5185C23.2518 13.0963 23.0846 13.4333 22.4154 13.6981C21.9614 13.8667 22.0092 13.9148 22.7978 14.3963C24.2555 15.263 24.3989 16.4667 23.1085 17.3815C22.4154 17.887 22.3915 17.887 22.0809 17.4537C21.8897 17.213 21.7463 16.8759 21.7463 16.7315C21.7463 16.2981 22.2482 15.913 22.6783 16.0574C22.9173 16.1296 22.8456 15.9852 22.4871 15.6722C22.1765 15.3833 21.7941 15.1667 21.6029 15.1667C21.125 15.1667 20.7665 14.3 20.9338 13.6019C21.0772 13.0241 22.057 12.037 22.4871 12.037C22.6066 12.037 22.7978 12.2537 22.9412 12.5185ZM47.3162 14.5648C47.6507 14.9741 47.125 15.913 45.5717 17.6944C44.8548 18.537 44.7114 18.6093 44.3529 18.3204C43.9945 18.0074 43.9945 17.9593 44.3768 17.5259C44.7353 17.1407 44.7353 17.0204 44.4485 16.8519C44.2096 16.7074 43.9228 16.7556 43.5882 16.9722C43.0864 17.2852 42.5368 17.0926 42.5368 16.563C42.5368 16.1537 43.6121 15.1667 44.0662 15.1426C44.3529 15.1426 44.9982 14.9259 45.5239 14.6852C46.7188 14.1315 46.9338 14.1074 47.3162 14.5648ZM37.6379 16.0093C40.1232 16.8519 41.4136 17.6463 43.1342 19.3796C45.9063 22.2204 47.0772 24.9407 47.2684 29.0093C47.3401 31.1037 47.2923 31.9944 46.9577 33.1019C45.0938 39.6741 39.7647 43.863 33.3125 43.863C29.0827 43.863 26.0478 42.6352 23.1563 39.7463C17.5404 34.0889 17.4688 25.3259 22.989 19.5722C26.8364 15.5759 32.3805 14.2278 37.6379 16.0093ZM19.6434 17.4778C19.9779 17.8148 20.1213 17.8148 20.432 17.5741C21.125 16.9963 21.0294 17.5019 20.3125 18.1278C19.9301 18.4889 19.5956 18.7056 19.5956 18.6333C19.5956 18.537 19.4283 18.6093 19.2371 18.7778C19.046 18.9463 18.9504 19.163 19.0221 19.3074C19.2371 19.6444 18.6397 20.2222 18.114 20.2222C17.7077 20.2222 17.6838 20.2944 17.9228 20.5833C18.3051 21.0407 18.0901 21.0407 17.182 20.5833C16.5846 20.2704 16.5129 20.1259 16.7279 19.7407C16.9908 19.2593 17.9228 19.0667 17.9228 19.5C17.9228 19.6204 18.1379 19.7407 18.4246 19.7407H18.9026L18.4246 19.0426C17.7316 18.0556 17.7794 17.9833 18.9265 18.1519L19.9301 18.3204L19.3566 17.6944C18.7353 17.0204 18.9504 16.8519 19.6434 17.4778ZM49.5147 19.6444C49.7776 20.1741 49.7537 20.3185 49.3474 20.6074C48.7978 21.0167 48.2243 21.0407 47.8419 20.6556C47.3879 20.1981 47.5074 19.7889 48.2243 19.4037C49.1085 18.8981 49.204 18.9222 49.5147 19.6444ZM17.0864 20.9926C17.5165 21.1852 17.6838 21.4259 17.636 21.763C17.5882 22.1722 17.3971 22.2685 16.7757 22.2204C15.9632 22.1963 15.5809 22.0037 15.8199 21.763C15.9154 21.6907 16.2022 21.763 16.489 21.9074C16.8474 22.1 17.0864 22.1241 17.2537 21.9556C17.421 21.787 17.2537 21.5704 16.7518 21.3296C15.6048 20.7278 15.8676 20.4389 17.0864 20.9926ZM50.614 21.5463C50.7813 21.9315 50.8051 22.1482 50.6379 22.1482C50.5184 22.1482 50.3511 21.9796 50.2794 21.787C50.0404 21.2093 49.6581 21.3778 49.8254 21.9556C49.9688 22.4611 49.9449 22.4852 49.6342 22.0759C49.1324 21.4741 48.9173 21.5704 49.0846 22.3167C49.2279 22.9667 49.2279 22.9667 48.8695 22.5333C48.3676 21.8833 48.4154 21.5463 49.0607 21.2333C49.8971 20.8241 50.3272 20.8963 50.614 21.5463ZM15.7721 22.6296C15.7721 22.75 16.0349 22.9185 16.3695 23.0148C16.704 23.087 16.9669 23.2556 16.9669 23.3759C16.9669 23.6407 16.7757 23.6167 16.1305 23.3759C15.8438 23.2556 15.5092 23.2796 15.318 23.4482C15.0313 23.6648 15.0074 23.6407 15.1268 23.2796C15.2224 23.0389 15.2941 22.7259 15.2941 22.6056C15.2941 22.4852 15.4136 22.3889 15.5331 22.3889C15.6765 22.3889 15.7721 22.4852 15.7721 22.6296ZM51.5221 23.9537C51.6176 24.1463 51.5938 24.5074 51.4982 24.7241C51.3309 25.0852 51.2831 25.0611 51.1636 24.5556C51.0202 24.0019 50.8768 23.9296 50.1838 24.0259C49.8493 24.0982 49.8971 24.7241 50.2555 24.8685C50.3989 24.9167 50.4706 25.0611 50.375 25.1574C50.1599 25.3982 49.4669 24.8444 49.4669 24.4593C49.4669 23.6407 51.2592 23.2074 51.5221 23.9537ZM16.7279 23.9778C16.7279 24.05 16.6085 24.3148 16.489 24.5796C16.2978 24.9407 16.0827 25.013 15.5809 24.8926C14.5294 24.6278 14.3382 24.2426 15.3658 24.4352C16.0827 24.5796 16.25 24.5315 16.25 24.2185C16.25 24.0019 16.3695 23.8333 16.489 23.8333C16.6324 23.8333 16.7279 23.9056 16.7279 23.9778ZM16.0349 25.687C16.5129 26.2407 15.7721 26.8185 14.8401 26.6019C13.9081 26.4093 14.0754 26.0482 15.0551 26.1926C15.9871 26.337 15.9871 25.8556 15.0551 25.6389C14.6489 25.5426 14.386 25.3982 14.4577 25.3019C14.625 25.013 15.7243 25.2778 16.0349 25.687ZM51.9283 26C52.3585 26 52.0239 26.4333 51.2114 26.9148L50.3033 27.4444H51.3309C52.3107 27.4444 52.3585 27.4685 52.2868 28.0944C52.1912 28.913 51.4026 29.1778 51.2114 28.4556C51.1397 28.1907 50.8768 27.9259 50.614 27.8537C50.2316 27.7333 50.1838 27.5889 50.3272 26.8667C50.4228 26.2889 50.375 26 50.2077 26C50.0643 26 49.9449 25.9037 49.9449 25.7833C49.9449 25.663 50.3272 25.663 50.8529 25.7833C51.3309 25.9037 51.8088 26 51.9283 26ZM14.4577 27.4204C14.386 27.7093 14.4577 27.9259 14.7206 28.0222C15.2702 28.2389 15.5809 27.95 15.3897 27.3722C15.2463 26.8667 15.2702 26.8667 15.6765 27.2519C16.011 27.5889 16.0349 27.7333 15.7721 28.0222C15.1029 28.8407 13.8125 28.287 14.1949 27.3241C14.386 26.7944 14.625 26.8907 14.4577 27.4204ZM51.8805 29.3704C52.3824 29.6593 52.4779 30.3333 52.0478 30.7667C51.6176 31.2 50.7096 31.1037 50.4228 30.5982C50.1121 29.9963 50.1121 29.9482 50.5662 29.5148C50.9963 29.0574 51.2353 29.0333 51.8805 29.3704ZM15.6287 29.7556C16.1544 30.2611 15.7243 31.0556 14.9357 31.0556C14.1471 31.0556 13.7169 30.2611 14.2426 29.7556C14.4338 29.5389 14.7684 29.3704 14.9357 29.3704C15.1029 29.3704 15.4375 29.5389 15.6287 29.7556ZM15.6526 31.7778C15.2702 32.2111 15.2702 32.2593 15.6048 32.2593C16.3217 32.2593 16.0349 32.6926 15.2463 32.813C14.3143 32.9574 14.3621 32.9815 14.2904 32.2352C14.2426 31.7778 14.3382 31.6574 14.7445 31.6574C15.0313 31.6574 15.3419 31.5611 15.4375 31.4648C15.8438 31.0556 16.0349 31.3444 15.6526 31.7778ZM51.6893 31.537C51.9761 31.537 52.0956 31.7296 52.0956 32.2593C52.0956 32.6444 51.9761 32.9815 51.8327 32.9815C51.6893 32.9815 51.6176 32.7648 51.6893 32.5C51.8566 31.8259 51.4743 31.6574 51.2592 32.3315L51.068 32.8611L50.9724 32.3074C50.8529 31.6574 50.4228 31.6093 50.4228 32.2593C50.4228 32.5241 50.3272 32.7407 50.1838 32.7407C49.8971 32.7407 49.8971 32.5963 50.1121 31.8259C50.2077 31.3926 50.375 31.2963 50.7574 31.3926C51.0202 31.4648 51.4504 31.537 51.6893 31.537ZM51.8566 33.7519C51.8566 33.8722 51.6654 33.9204 51.4504 33.8482C51.2114 33.7759 50.7335 33.6556 50.375 33.5593C49.9926 33.487 49.7537 33.3185 49.8254 33.2222C49.9688 32.9815 51.8566 33.463 51.8566 33.7519ZM15.7243 33.5352C16.3934 33.463 16.5129 33.487 16.25 33.6796C16.0588 33.8241 15.7004 33.9444 15.4853 33.9444C15.2463 33.9444 15.0551 34.137 15.0551 34.3537C15.0551 34.7148 15.0074 34.7389 14.8162 34.4259C14.6967 34.2333 14.6011 33.8482 14.6011 33.5833C14.6011 33.3185 14.6728 33.2222 14.7206 33.3907C14.7923 33.5593 15.1746 33.6315 15.7243 33.5352ZM51.4026 34.3778C51.4982 34.4741 51.4743 34.787 51.3548 35.0759C51.1397 35.6296 50.3033 35.8463 50.136 35.3648C50.0882 35.2444 49.8732 35.1963 49.6342 35.2926C49.2518 35.437 49.2757 35.5333 49.9449 36.2074C50.3272 36.6407 50.5901 37.05 50.5184 37.1463C50.2555 37.4111 48.2721 37.3389 48.2721 37.0741C48.2721 36.9296 48.4393 36.8333 48.6305 36.8333C48.9651 36.8333 49.1085 36.5445 49.0129 36.0148C48.9173 35.5333 49.2757 34.9556 49.7776 34.8111C50.3033 34.6667 50.3033 34.6667 49.8254 34.2815C49.3713 33.9204 49.3952 33.8963 50.3033 34.0648C50.829 34.137 51.3309 34.3056 51.4026 34.3778ZM16.7279 34.5944C16.7279 34.6667 16.5368 34.9556 16.3217 35.2204C15.9154 35.6778 15.9154 35.6778 16.489 35.5093C16.8952 35.3889 17.0147 35.413 16.8474 35.5815C16.5368 35.9185 15.2941 36.2315 15.2941 35.9667C15.2941 35.8704 15.4853 35.5815 15.7243 35.3167C16.1066 34.8593 16.1066 34.8593 15.6048 35.0037C15.2941 35.1 15.0551 35.1241 15.0551 35.0278C15.0551 34.8593 15.9871 34.4741 16.4412 34.45C16.5846 34.4259 16.7279 34.4982 16.7279 34.5944ZM17.6838 36.9778C17.6838 37.2185 16.2739 37.9167 16.1305 37.7482C16.1066 37.7 15.9393 37.4352 15.796 37.1222C15.4614 36.4963 15.7004 36.4241 16.1783 37.0019C16.489 37.4111 16.5129 37.387 16.4173 36.8815C16.2739 36.2315 16.4412 36.2074 16.8952 36.7611C17.2059 37.1463 17.2298 37.1222 17.1103 36.4722C16.9669 35.7982 16.9908 35.7741 17.3254 36.2074C17.5165 36.4722 17.6838 36.8093 17.6838 36.9778ZM18.3529 38.2056C18.4963 39.1445 16.9669 39.5056 16.6324 38.6389C16.5607 38.4463 16.6085 38.2296 16.7279 38.1574C16.8713 38.0611 16.9669 38.1815 16.9669 38.3982C16.9669 38.663 17.1342 38.7593 17.4926 38.7111C18.0901 38.6148 18.3768 38.037 17.8272 38.037C17.6121 38.037 17.4449 37.9167 17.4449 37.7722C17.4449 37.2907 18.2813 37.6759 18.3529 38.2056ZM48.7022 39.313C48.7978 39.7945 48.1048 40.1315 47.7702 39.7945C47.4357 39.4574 47.7941 38.7111 48.2482 38.8074C48.4632 38.8556 48.6544 39.0722 48.7022 39.313ZM18.807 40.5407C18.7114 40.7574 18.5441 40.9259 18.4007 40.9259C17.9945 40.9259 17.8272 40.1796 18.1857 39.9389C18.6158 39.6741 18.9982 40.0593 18.807 40.5407ZM20.5515 41.3833C20.5515 41.6241 20.3842 41.9611 20.193 42.1296C19.5717 42.6593 19.8107 42.8759 20.5754 42.4667C21.125 42.2019 21.3879 42.1537 21.579 42.3463C21.7702 42.5389 21.579 42.8759 20.9099 43.5741C19.8585 44.6574 19.2132 44.6093 20.2408 43.5019L20.9099 42.7556L20.0257 43.2852C18.9504 43.887 18.6636 43.5982 19.3566 42.6111C19.9301 41.7926 19.6673 41.6241 18.9982 42.3704C18.7592 42.6352 18.4724 42.7796 18.329 42.6833C18.1857 42.6111 18.5441 42.1296 19.1415 41.6241C20.2169 40.6852 20.5515 40.637 20.5515 41.3833ZM47.3879 41.6963C47.8419 42.2982 47.8419 42.3704 47.4596 42.9482C46.7188 44.1037 44.9265 43.5259 44.9265 42.1296C44.9265 41.7926 45.0699 41.3593 45.2132 41.2148C45.7151 40.7093 46.8621 40.9741 47.3879 41.6963ZM45.954 44.6093C45.8824 44.7296 45.6434 44.6333 45.3805 44.3926C45.0221 44.0556 44.8787 44.0556 44.568 44.2963C44.3051 44.513 44.2813 44.7056 44.4724 45.0667C45.0699 46.1982 44.114 45.7648 43.2059 44.4889C42.6563 43.6704 42.7996 43.3093 43.4688 43.9111C43.8511 44.2722 43.9228 44.2722 44.2096 43.9352C44.4485 43.6463 44.4485 43.5019 44.2096 43.213C44.0662 43.0204 43.9945 42.7556 44.0901 42.6111C44.1857 42.4667 44.6158 42.7556 45.1654 43.3815C45.6673 43.9593 46.0257 44.513 45.954 44.6093ZM23.5386 44.0556C23.7776 44.4407 23.0129 44.3204 22.7022 43.9352C22.5349 43.7426 22.3199 43.5741 22.2004 43.5741C21.8419 43.5741 21.9614 44.2963 22.3438 44.4407C22.5349 44.537 22.7022 44.7537 22.7022 44.9704C22.7022 45.2593 22.5827 45.2352 22.1526 44.8019C21.6746 44.3685 21.5313 44.3204 21.2923 44.6333C21.0772 44.8982 21.1489 45.0667 21.6507 45.4278C22.0092 45.6926 22.2004 45.9815 22.0809 46.0537C21.9614 46.1259 21.5074 45.8852 21.0772 45.5482L20.2886 44.8982L21.1489 43.863L22.0331 42.8519L22.7261 43.3333C23.0846 43.6222 23.4669 43.9352 23.5386 44.0556ZM43.2537 45.1148C44.0662 46.3426 43.8989 46.6315 42.6563 46.1259C41.7243 45.7167 41.6765 45.7648 42.2022 46.5593C42.3934 46.8963 42.4651 47.2093 42.3456 47.2815C42.1066 47.4259 40.864 45.7167 40.864 45.2352C40.864 44.9704 41.4614 45.0426 42.4651 45.4278C42.8713 45.5963 42.8713 45.5722 42.4651 44.9463C42.011 44.2241 41.9632 44.0556 42.2978 44.0556C42.4173 44.0556 42.8474 44.537 43.2537 45.1148ZM25.8088 45.4037C26.2629 45.5963 27.1471 45.9333 27.7684 46.15C28.3897 46.3426 29.011 46.6556 29.1544 46.8241C29.4651 47.2093 29.2022 47.9074 28.7482 47.9074C28.5092 47.9074 28.4375 48.0519 28.5331 48.2685C28.6048 48.4611 28.7482 48.7982 28.8199 48.9907C28.8915 49.1833 28.8438 49.3519 28.6765 49.3519C28.5331 49.3519 28.2702 49.0148 28.1268 48.6296C27.8162 47.787 27.4816 47.6907 27.3143 48.3889C27.2426 48.6537 27.0993 48.8704 26.9798 48.8704C26.693 48.8704 26.7169 48.0759 27.0037 47.2815C27.1949 46.7759 27.1949 46.5833 26.9559 46.4148C26.4779 46.1259 26.3585 46.1741 26.2151 46.7519C26.0239 47.45 25.4265 48.3167 25.2353 48.1241C25.1397 48.0519 25.2592 47.5945 25.4504 47.113C25.9283 45.9333 25.9044 45.6685 25.307 45.813C24.9485 45.9093 24.7574 45.813 24.6857 45.4759C24.614 45.2352 24.3989 45.0185 24.2316 45.0185C23.8015 45.0185 23.8015 45.3556 24.2555 45.7407C24.7574 46.15 24.7096 46.8722 24.1599 47.1852C23.7776 47.3778 23.5625 47.3056 23.0368 46.8722C22.6544 46.5352 22.4632 46.1741 22.5588 46.0296C22.8217 45.5963 23.1085 45.6926 23.2518 46.2222C23.3235 46.487 23.5625 46.7037 23.7776 46.7037C24.136 46.7037 24.1121 46.6074 23.682 45.8852C23.204 45.1148 23.204 45.0426 23.5625 44.6574C23.921 44.3204 23.9926 44.3204 24.4706 44.6333C24.7335 44.85 25.3548 45.187 25.8088 45.4037ZM41.1268 46.487C41.8199 47.8833 41.3897 48.1482 40.6011 46.8C40.2426 46.1741 40.0037 45.5482 40.0515 45.4519C40.2665 45.1389 40.6011 45.4759 41.1268 46.487ZM40.3382 47.5945C40.9357 48.0759 40.9357 48.1241 40.5055 48.1482C40.2188 48.1482 39.8842 48.0278 39.7408 47.8833C39.5257 47.6667 39.4063 47.763 39.2868 48.2445C39.0717 49.1352 38.6415 49.0389 38.761 48.1C38.8566 47.4982 38.761 47.2333 38.2592 46.8C37.7813 46.3426 37.7335 46.2463 38.0441 46.2222C38.2592 46.2222 38.5221 46.3185 38.5938 46.463C38.8327 46.8482 39.1912 46.7278 39.1912 46.2704C39.1912 45.4519 39.5496 45.4519 39.6213 46.2704C39.6691 46.7759 39.932 47.2574 40.3382 47.5945ZM37.9724 47.7389C38.1636 48.3648 38.2353 48.9426 38.1397 49.0389C37.9007 49.3037 37.5662 48.6537 37.375 47.5945C37.2794 46.9204 37.1599 46.7278 36.9688 46.9204C36.8254 47.0648 36.4669 47.1852 36.1563 47.1852C35.8217 47.1852 35.6066 47.3296 35.6066 47.5704C35.6066 47.8593 35.7739 47.9074 36.3235 47.787C36.7537 47.6907 37.0404 47.7389 37.0404 47.8593C37.0404 48.0037 36.7298 48.1722 36.3474 48.2685C35.3676 48.4852 35.6066 49.1352 36.5864 48.9426C36.9926 48.8704 37.2794 48.9185 37.2794 49.063C37.2794 49.1833 36.8971 49.3759 36.4191 49.4722C35.4393 49.6407 35.1287 49.4 35.1287 48.413C35.1287 47.8593 35.1048 47.8593 34.818 48.2445C34.6507 48.4611 34.3162 48.6778 34.0533 48.7259C33.7665 48.7741 33.5515 49.0148 33.5037 49.3278C33.3364 50.363 32.8585 49.6648 32.7868 48.3167L32.7151 46.9445H33.5515C34.0055 46.9445 34.4596 47.0648 34.5551 47.2093C34.6507 47.4019 34.7702 47.3778 34.8897 47.1611C35.0809 46.8963 36.8493 46.463 37.3989 46.5833C37.5184 46.6074 37.7813 47.113 37.9724 47.7389ZM31.6636 47.2093C31.7831 47.3296 31.5202 47.4259 30.9945 47.4259C29.9191 47.4259 29.8235 47.8111 30.8511 48.0278C31.6875 48.2204 31.568 48.5093 30.6599 48.5093C29.7996 48.5093 29.6801 49.063 30.4926 49.1593C30.8511 49.2074 31.1857 49.3519 31.2335 49.5204C31.3051 49.737 31.0662 49.7611 30.421 49.6648C29.9191 49.5926 29.4651 49.4963 29.4173 49.4482C29.3695 49.4 29.4173 48.7741 29.5129 48.0278L29.6801 46.6796L30.5404 46.8482C31.0184 46.9204 31.5202 47.0889 31.6636 47.2093Z" fill="black"/>
<path d="M35.1765 18.0556C30.8033 19.2111 27.1949 22.8944 26.1673 27.2278C25.7371 29.1296 25.7132 31.2963 26.1195 32.9093L26.4302 34.137L25.761 33.8963C24.0405 33.2944 22.2243 34.5704 22.2243 36.3759C22.2243 38.2778 23.3713 39.6019 24.9246 39.5056C26.3824 39.4333 27.386 38.687 27.7206 37.4593C27.8162 37.0741 28.0313 37.2907 28.796 38.4704C30.1342 40.5407 31.3768 41.0944 31.2574 39.5296C31.2096 39.0481 31.0662 38.6389 30.8989 38.6389C30.5643 38.6389 28.557 35.9907 28.3419 35.2444C28.1985 34.8111 28.2702 34.7389 28.9155 34.763C29.5368 34.787 29.6324 34.8833 29.6324 35.437C29.6324 36.2556 30.3254 38.037 30.636 38.037C30.7794 38.037 30.8272 37.8926 30.7555 37.7241C30.7077 37.5796 30.4449 36.8093 30.2298 36.063L29.7996 34.6907L30.7794 32.5241C31.3291 31.3444 33.0974 27.6852 34.6985 24.387C36.2996 21.113 37.5901 18.3444 37.5662 18.2241C37.5423 18.1278 37.6379 18.0556 37.7574 18.0556C37.9007 18.0556 37.9963 17.9352 37.9963 17.8148C37.9963 17.4537 37.1599 17.55 35.1765 18.0556ZM33.3842 26.2407L29.5129 34.1852L28.6765 34.137C27.864 34.0648 27.8401 34.0407 27.5294 32.6204C26.6452 28.4796 28.2941 23.8333 31.6397 21.0889C32.5239 20.3426 36.4191 18.3685 37.0882 18.3204C37.1838 18.2963 35.511 21.8833 33.3842 26.2407ZM26.3585 34.9074C25.8805 35.3407 23.8732 35.9426 23.6342 35.7019C23.3235 35.3889 23.7776 35.0037 24.853 34.7389C25.7371 34.4981 26.693 34.6185 26.3585 34.9074ZM23.921 37.1944C24.1599 37.7241 24.375 38.3981 24.375 38.7111C24.375 39.1685 24.3033 39.2167 23.921 39.0241C23.3474 38.687 22.7022 37.3148 22.7022 36.3519C22.7022 35.6537 22.75 35.6056 23.1085 35.8944C23.3235 36.087 23.682 36.6648 23.921 37.1944ZM27.2427 37.1944C27.2427 37.6278 26.0478 38.2778 25.2114 38.2778C24.3989 38.2778 24.4228 37.6037 25.2831 37.4111C25.6416 37.3389 26.1912 37.1704 26.5257 37.0741C26.8603 36.9537 27.1471 36.8574 27.1949 36.8574C27.2188 36.8333 27.2427 37.0019 27.2427 37.1944Z" fill="black"/>
<path d="M36.2997 31.0074C33.5037 33.6315 33.0019 34.1611 33.3603 34.2093C33.5276 34.2333 39.6213 28.5759 39.6452 28.3352C39.693 27.9019 39.1195 28.3593 36.2997 31.0074Z" fill="black"/>
<path d="M38.8089 32.7648C38.3548 33.2704 38.3787 33.2704 38.9283 33.7278C39.239 33.9685 39.6691 34.1852 39.8842 34.1852C40.171 34.1852 40.1471 34.0648 39.693 33.7278L39.1434 33.2944L39.8842 33.4148C40.2905 33.463 40.7923 33.3907 40.9835 33.2222C41.1747 33.0537 41.3419 33.0296 41.3419 33.1741C41.3419 33.2944 41.103 33.5833 40.8162 33.7759C40.41 34.0407 40.3622 34.1611 40.625 34.1611C41.0552 34.1852 42.0589 33.5352 42.0589 33.2222C42.0589 32.2352 39.5975 31.8741 38.8089 32.7648ZM40.2666 32.9815C40.3383 33.1018 40.2905 33.2222 40.171 33.2222C40.0276 33.2222 39.9081 33.1018 39.9081 32.9815C39.9081 32.837 39.9559 32.7407 40.0037 32.7407C40.0754 32.7407 40.1949 32.837 40.2666 32.9815Z" fill="black"/>
<path d="M36.1085 34.5704C35.7022 35.1 35.6066 35.5574 35.6066 37.1222C35.6066 38.1815 35.7261 39.2407 35.8456 39.4815C36.3713 40.4685 38.9283 40.3722 39.5735 39.3611C39.9081 38.8315 39.9081 38.6389 39.4063 37.0741C39.1195 36.1593 38.7849 35.3889 38.6893 35.3889C38.5699 35.3889 38.4743 35.2444 38.4743 35.0759C38.4743 34.5944 37.6857 33.9444 37.0882 33.9444C36.8254 33.9444 36.3713 34.2333 36.1085 34.5704ZM37.8768 34.7389C38.2592 35.0519 38.2114 35.1 37.3033 35.3167C36.2757 35.5815 35.989 35.3407 36.6103 34.7148C36.9927 34.3296 37.3272 34.3537 37.8768 34.7389ZM37.7574 36.9778C37.7574 37.0259 37.5423 36.9778 37.2794 36.8333C37.0166 36.6889 36.8015 36.5204 36.8015 36.4482C36.8015 36.4 37.0166 36.4482 37.2794 36.5926C37.5423 36.737 37.7574 36.9056 37.7574 36.9778ZM37.6379 37.7963C37.5662 37.9167 37.6379 38.037 37.7813 38.0852C37.9485 38.1333 37.8768 38.3259 37.614 38.5185C37.3511 38.7352 37.2555 38.7593 37.375 38.5667C37.4706 38.4222 37.4706 38.1333 37.3511 37.9648C37.2555 37.8204 37.1599 37.5315 37.136 37.363C37.0882 37.1222 37.1599 37.1222 37.4228 37.3389C37.5901 37.4833 37.7096 37.7 37.6379 37.7963Z" fill="black"/>
<path d="M17.0864 19.7648C16.8474 20.1259 17.1581 20.3667 17.4688 20.0537C17.636 19.8852 17.636 19.7407 17.4927 19.6445C17.3493 19.5722 17.1581 19.6204 17.0864 19.7648Z" fill="black"/>
<path d="M48.3916 19.813C47.818 20.2463 48.1287 20.8 48.7739 20.463C49.0129 20.3185 49.228 20.0537 49.228 19.8611C49.228 19.4037 48.9651 19.4037 48.3916 19.813Z" fill="black"/>
<path d="M50.8529 26.4093C51.0202 26.4815 51.2353 26.4574 51.307 26.3852C51.4026 26.313 51.2592 26.2407 50.9963 26.2648C50.7335 26.2648 50.6618 26.337 50.8529 26.4093Z" fill="black"/>
<path d="M51.5221 27.8778C51.4504 28.0222 51.4982 28.2148 51.6416 28.287C52 28.5278 52.239 28.2148 51.9283 27.9019C51.761 27.7333 51.6177 27.7333 51.5221 27.8778Z" fill="black"/>
<path d="M50.7813 29.8519C50.6857 30.0204 50.7096 30.237 50.853 30.3815C51.1875 30.7185 51.9761 30.5259 51.9761 30.0926C51.9761 29.6593 51.0202 29.4667 50.7813 29.8519Z" fill="black"/>
<path d="M14.4577 30.0926C14.3621 30.2611 14.386 30.4778 14.5055 30.5982C14.7923 30.887 15.5809 30.5982 15.4614 30.237C15.3419 29.8759 14.6489 29.7796 14.4577 30.0926Z" fill="black"/>
<path d="M14.5772 32.1148C14.5772 32.3315 14.6967 32.5 14.8162 32.5C14.9596 32.5 15.0552 32.4037 15.0552 32.2833C15.0552 32.1389 14.9596 31.9704 14.8162 31.8981C14.6967 31.8259 14.5772 31.9222 14.5772 32.1148Z" fill="black"/>
<path d="M50.5423 34.8833C50.4706 35.0037 50.5184 35.1722 50.6379 35.2445C50.7574 35.3167 50.9007 35.2204 50.9963 35.0278C51.1397 34.6426 50.7813 34.5222 50.5423 34.8833Z" fill="black"/>
<path d="M49.3475 36.5926C49.2758 36.713 49.3713 36.8333 49.5864 36.8333C49.8015 36.8333 49.8971 36.713 49.8254 36.5926C49.7537 36.4481 49.6342 36.3518 49.5864 36.3518C49.5386 36.3518 49.4191 36.4481 49.3475 36.5926Z" fill="black"/>
<path d="M45.5717 41.5759C44.9982 42.1296 45.9541 43.3093 46.7427 42.9963C47.1489 42.8278 47.1728 42.0815 46.7905 41.6963C46.4798 41.3833 45.8107 41.3111 45.5717 41.5759Z" fill="black"/>
<path d="M27.6489 47.0407C27.5772 47.2333 27.6967 47.4259 27.9835 47.4981C28.5331 47.6426 28.8677 47.2093 28.4136 46.9204C27.9596 46.6315 27.7923 46.6556 27.6489 47.0407Z" fill="black"/>
<path d="M33.4559 47.9074C33.4559 48.437 33.6232 48.5093 34.1489 48.1722C34.5313 47.9315 34.2923 47.4259 33.7905 47.4259C33.5993 47.4259 33.4559 47.6426 33.4559 47.9074Z" fill="black"/>
<path d="M40.2905 7.00555C39.6691 7.79999 39.1673 8.47407 39.2151 8.49814C39.2629 8.54629 39.7408 8.71481 40.2666 8.88333C40.7923 9.07592 41.3658 9.26851 41.5331 9.31666C41.7482 9.41296 41.8199 8.95555 41.8199 7.48703C41.8199 6.4037 41.7482 5.53703 41.6526 5.5611C41.5331 5.5611 40.9357 6.2111 40.2905 7.00555Z" fill="black"/>
<path d="M20.3125 7.46297C20.3125 7.87222 20.8383 11.1944 20.91 11.2667C21.0294 11.387 23.4191 9.99074 23.3475 9.8463C23.228 9.50926 20.3125 7.22222 20.3125 7.46297Z" fill="black"/>
<path d="M44.2813 8.47408C43.4449 9.12408 42.7758 9.75 42.7758 9.82223C42.7758 9.91852 43.3254 10.2796 43.9706 10.6407L45.1655 11.3148L45.2849 10.7611C45.5239 9.65371 45.8824 7.39074 45.8107 7.31852C45.7868 7.29445 45.0938 7.8 44.2813 8.47408Z" fill="black"/>
<path d="M47.4835 10.8815C46.5993 11.4352 45.9063 11.8685 45.9302 11.8926C45.978 11.9167 46.5037 12.35 47.125 12.8315L48.2482 13.7463L48.7261 12.2296C48.9651 11.387 49.2519 10.5204 49.3474 10.2796C49.5864 9.70186 49.3235 9.77408 47.4835 10.8815Z" fill="black"/>
<path d="M13.6213 13.1926C13.6213 13.313 15.2463 16.3944 15.4136 16.563C15.5092 16.6593 17.2776 14.7574 17.3971 14.4685C17.421 14.3722 16.5846 14.0352 15.5331 13.6741C14.4816 13.337 13.6213 13.0963 13.6213 13.1926Z" fill="black"/>
<path d="M50.4945 13.65L48.7739 14.2759L49.6581 15.4074C50.1361 16.0333 50.614 16.5148 50.7096 16.4667C50.853 16.3704 52.5736 13.313 52.5736 13.1204C52.5736 12.9278 52.3107 13 50.4945 13.65Z" fill="black"/>
<path d="M10.9927 16.7315C10.9927 16.9241 13.2868 19.7167 13.5019 19.813C13.5736 19.837 13.9559 19.3074 14.3383 18.6093C15.1508 17.1889 15.1747 17.237 13.0239 16.9722C12.3787 16.8759 11.6379 16.7556 11.4228 16.6833C11.1839 16.6352 10.9927 16.6593 10.9927 16.7315Z" fill="black"/>
<path d="M10.3952 22.0278C11.1839 22.75 11.9486 23.3278 12.0919 23.3519C12.2353 23.3519 12.4743 22.9185 12.6416 22.3648C12.8089 21.8111 13 21.2333 13.0717 21.0407C13.1673 20.7759 12.785 20.7037 11.0883 20.7037H8.96143L10.3952 22.0278Z" fill="black"/>
<path d="M53.0515 20.8C53.0515 20.8481 53.1949 21.2574 53.386 21.6907C53.5533 22.1481 53.7684 22.7018 53.8401 22.9426C54.0313 23.4481 54.1985 23.3518 56.0386 21.7148L57.1857 20.7037H55.1066C53.9835 20.7037 53.0515 20.7518 53.0515 20.8Z" fill="black"/>
<path d="M54.3897 25.2056C54.796 27.3963 54.6526 27.3241 56.4688 26.2167C57.3769 25.663 58.046 25.1815 57.9743 25.1093C57.8787 25.013 54.6526 24.3148 54.2941 24.3148C54.2463 24.3148 54.2941 24.7241 54.3897 25.2056Z" fill="black"/>
<path d="M9.51103 28.7685C8.48346 29.1537 7.64706 29.5389 7.64706 29.6111C7.64706 29.7796 11.2794 31.0796 11.3989 30.9593C11.4467 30.9111 11.4706 30.237 11.4228 29.4426L11.3511 28.0222L9.51103 28.7685Z" fill="black"/>
<path d="M54.5092 33.3907C54.3658 34.137 54.2702 34.763 54.318 34.8111C54.4614 34.9556 58.046 34.0889 57.9504 33.9444C57.8548 33.7759 55.0111 32.0185 54.8677 32.0185C54.8199 32.0185 54.6765 32.6444 54.5092 33.3907Z" fill="black"/>
<path d="M53.8401 36.2796C53.7684 36.5204 53.5533 37.0741 53.386 37.5315C53.1949 37.9648 53.0515 38.3741 53.0515 38.4222C53.0515 38.4704 53.9118 38.5185 54.9632 38.5185C56.0147 38.5185 56.875 38.4463 56.875 38.3259C56.875 38.1333 54.3658 35.8704 54.1269 35.8704C54.0552 35.8704 53.9357 36.063 53.8401 36.2796Z" fill="black"/>
<path d="M12.2353 40.7333C11.5662 41.5759 11.136 42.2741 11.2555 42.3222C11.4706 42.4185 14.864 41.937 14.9835 41.7926C15.0791 41.7204 13.6213 39.2407 13.478 39.2407C13.4541 39.2407 12.8805 39.9148 12.2353 40.7333Z" fill="black"/>
<path d="M14.5055 44.1759C14.0276 45.0185 13.6213 45.813 13.6213 45.9333C13.6213 46.0537 14.3382 45.9093 15.2463 45.5722C16.1305 45.2593 16.9908 44.9463 17.1581 44.8982C17.3732 44.8259 17.182 44.4407 16.5607 43.6945C16.0827 43.0926 15.6048 42.6111 15.5331 42.6111C15.4614 42.6111 15.0074 43.3093 14.5055 44.1759Z" fill="black"/>
<path d="M49.7776 43.5741C49.3474 44.0796 48.989 44.5852 48.989 44.7056C48.989 44.8018 49.8015 45.187 50.7813 45.5481C51.761 45.8852 52.5735 46.1259 52.5735 46.0778C52.5735 45.8611 50.7813 42.6111 50.6618 42.6111C50.5901 42.6111 50.1838 43.0444 49.7776 43.5741Z" fill="black"/>
<path d="M17.3254 47.0889C16.9908 48.1 16.7518 48.9667 16.7996 49.0389C16.9191 49.1352 18.3529 48.4611 19.5956 47.6907L20.2886 47.2815L19.1416 46.2704L17.9706 45.2833L17.3254 47.0889Z" fill="black"/>
<path d="M46.886 46.463L45.8585 47.3778L47.6029 48.3407C48.5588 48.8944 49.3713 49.3037 49.3952 49.2556C49.5147 49.1352 48.2243 45.5 48.0809 45.5C47.9853 45.5241 47.4596 45.9333 46.886 46.463Z" fill="black"/>
<path d="M20.5754 49.7611C20.432 50.7722 20.3603 51.6389 20.4081 51.687C20.5276 51.8074 23.3714 49.5685 23.3952 49.3519C23.4191 49.2074 21.3162 47.9074 21.0533 47.9074C20.9339 47.9074 20.7188 48.7259 20.5754 49.7611Z" fill="black"/>
<path d="M43.8989 48.5815C43.2776 48.9426 42.7758 49.2796 42.7758 49.3519C42.7758 49.5444 45.6434 51.8315 45.739 51.7352C45.8585 51.6148 45.2849 48.1963 45.1416 48.0519C45.0938 47.9796 44.5202 48.2444 43.8989 48.5815Z" fill="black"/>
<path d="M40.2188 50.2426C39.6452 50.4352 39.1912 50.6759 39.1912 50.7482C39.1912 50.8444 39.7886 51.5667 40.5055 52.3611L41.796 53.8056L41.8199 51.8074C41.8199 49.6167 41.8438 49.6407 40.2188 50.2426Z" fill="black"/>
<path d="M27.7684 51.0611C27.8401 51.2537 28.0313 52.1685 28.1985 53.1315C28.3658 54.0945 28.5809 54.8167 28.6765 54.7685C28.9155 54.6241 30.5882 51.7833 30.5882 51.5185C30.5882 51.4222 30.0864 51.2537 29.489 51.1574C28.8677 51.0852 28.1985 50.9407 28.0074 50.8445C27.7445 50.7482 27.6728 50.8204 27.7684 51.0611Z" fill="black"/>
<path d="M37.5184 51.0611C37.1838 51.1574 36.5625 51.2296 36.1324 51.2537C35.6783 51.2778 35.3677 51.3741 35.4155 51.4704C35.7022 52.1685 37.3989 54.8648 37.4945 54.7444C37.5662 54.6963 37.6379 54.3833 37.6857 54.0944C37.7335 53.8056 37.8769 52.987 38.0202 52.2889C38.1636 51.5667 38.2353 50.9648 38.1875 50.9407C38.1636 50.8926 37.853 50.9648 37.5184 51.0611Z" fill="black"/>
<path d="M32.1177 53.0111C32.4283 53.8537 32.7629 54.7445 32.8824 54.9852C33.0257 55.3463 33.193 55.0574 33.7427 53.6611C34.1011 52.6982 34.4118 51.8074 34.4118 51.7111C34.4118 51.5907 33.7666 51.5185 32.978 51.5185H31.5441L32.1177 53.0111Z" fill="black"/>
<path d="M52.7408 50.5556C52.5496 50.8204 52.3585 50.9889 52.2868 50.9167C52.2151 50.8445 51.9761 51.013 51.7132 51.3019C51.068 52.0241 51.0919 54.1426 51.761 55.0574C52.7886 56.4537 54.6048 55.9 55.2261 53.9982C55.5607 52.9148 54.9871 51.2537 54.0074 50.5556C53.171 49.9537 53.1471 49.9537 52.7408 50.5556ZM53.7206 53.0593C53.9596 53.9259 53.8401 54.4074 53.386 54.4074C52.7647 54.4074 52.239 52.4093 52.7408 51.9278C53.0037 51.663 53.5294 52.2648 53.7206 53.0593Z" fill="black"/>
<path d="M11.9246 51.7833C10.8254 52.313 9.8695 52.8185 9.82171 52.8667C9.75002 52.9389 9.94119 53.2037 10.2041 53.4926L10.7059 53.9981L11.5901 53.4685C12.761 52.7704 12.8805 52.8185 12.068 53.6852C11.4945 54.287 11.4228 54.5037 11.614 54.8407C11.9724 55.4185 12.7371 55.4667 14.0515 55.0333L15.1746 54.6722L14.4099 55.3463C13.4541 56.1407 13.4302 56.5019 14.2427 56.863C14.9357 57.1759 14.9357 57.1759 16.9908 54.6241C17.6599 53.7574 17.6599 53.7574 17.2059 53.3241C16.7519 52.8907 16.6563 52.8907 15.4375 53.2759C13.7647 53.8296 13.7408 53.8056 14.4338 52.8907C14.7923 52.4333 15.0552 51.9759 15.0552 51.8315C15.0552 51.5907 14.2905 50.7963 14.0754 50.7963C14.0037 50.7963 13.0478 51.2296 11.9246 51.7833Z" fill="black"/>
<path d="M48.75 52.2408C48.75 52.3852 48.4871 52.6019 48.1526 52.7222C47.579 52.9389 47.125 53.5648 47.3879 53.8296C47.6268 54.0704 49.2279 52.8908 49.2279 52.4574C49.2279 52.2167 49.1324 52 48.989 52C48.8695 52 48.75 52.1204 48.75 52.2408Z" fill="black"/>
<path d="M48.4633 53.7093C48.1287 53.9018 48.0331 54.263 48.0331 55.3222C48.0331 56.0926 47.9136 56.8389 47.7702 56.9833C47.4835 57.2722 47.6508 58.8611 48.0092 59.0778C48.1048 59.15 48.4155 59.1259 48.7022 59.0537C49.0846 58.9574 49.228 58.7407 49.228 58.2593C49.228 57.8981 49.4191 57.4167 49.682 57.2C50.0883 56.8148 50.136 56.8148 50.2555 57.2963C50.3989 57.85 50.853 57.9222 51.4982 57.4407C51.9283 57.1278 51.8805 57.0315 50.7574 55.3463C49.5625 53.5167 49.1802 53.2518 48.4633 53.7093ZM49.3952 55.9C49.3235 56.0926 49.2519 56.0204 49.2519 55.7556C49.228 55.4907 49.2997 55.3463 49.3713 55.4426C49.443 55.5148 49.4669 55.7315 49.3952 55.9Z" fill="black"/>
<path d="M18.2335 54.6963C18.1379 54.8648 18.0423 55.1778 18.0423 55.3704C18.0423 55.563 17.8511 55.7315 17.5883 55.7315C17.3493 55.7315 17.0147 55.9482 16.8714 56.213C16.728 56.4537 16.4651 56.8148 16.3217 57.0074C15.7004 57.6815 16.0827 58.2833 17.6361 59.0778C18.2574 59.4148 18.5202 59.4389 18.7831 59.1982C19.285 58.7889 19.1894 58.5482 18.3769 58.1148C17.8272 57.85 17.7077 57.6815 17.9228 57.537C18.0901 57.4407 18.5202 57.513 18.8787 57.7296C19.4283 58.0667 19.6195 58.0667 19.9302 57.8019C20.4559 57.3685 20.4081 57.1759 19.7151 56.863C19.3327 56.6944 19.1655 56.4537 19.2611 56.213C19.3805 55.9 19.5 55.9 20.0975 56.2611C20.6471 56.5741 20.91 56.6222 21.2206 56.4296C21.8419 56.0204 21.7225 55.7796 20.432 55.0815C19.1177 54.3593 18.5202 54.263 18.2335 54.6963Z" fill="black"/>
<path d="M45.8346 55.2982C45.5 55.3704 45.4044 55.6593 45.4044 56.4537C45.4044 57.1759 45.2849 57.537 45.0221 57.6333C44.4486 57.85 44.4486 57.85 44.4486 56.9111C44.4486 56.1648 44.3769 56.0685 43.9228 56.1408C43.4688 56.1889 43.3493 56.3815 43.3015 57.1759C43.2537 57.7056 43.1103 58.2352 42.9908 58.3556C42.7041 58.6685 42.7041 59.6315 43.0147 59.8241C43.1581 59.9204 43.2537 60.2093 43.2059 60.4982C43.1581 60.8352 43.2776 61.0519 43.5644 61.1C44.2335 61.2445 44.7353 60.6667 44.6397 59.8963C44.5919 59.487 44.7114 59.1019 44.9265 58.9815C45.5 58.5963 45.6434 58.6926 45.6434 59.463C45.6434 59.9926 45.7629 60.1852 46.0736 60.1852C47.0055 60.1611 47.1489 59.8482 46.9816 57.9945C46.7905 55.9482 46.6232 55.1296 46.3842 55.1537C46.3125 55.1778 46.0497 55.2259 45.8346 55.2982Z" fill="black"/>
<path d="M21.9853 56.6463C21.4357 56.9352 21.3879 57.0796 21.4596 58.2111C21.5074 58.9815 21.4357 59.463 21.2923 59.463C21.1489 59.463 21.0294 59.3185 21.0294 59.1259C21.0294 58.5963 20.2886 58.4519 19.8107 58.8852C19.1655 59.487 19.2611 59.8 20.193 60.2574C21.3162 60.8111 22.1287 60.763 22.7261 60.1611C23.1324 59.7519 23.1802 59.487 23.0368 58.5963C22.8934 57.5852 23.1563 57.1519 23.5386 57.7778C23.6342 57.9222 23.9688 58.0185 24.3272 57.9944C24.6857 57.9704 25.2114 58.0426 25.4982 58.163C26.0478 58.3796 26.0478 58.4037 25.0919 59.7037C24.5662 60.4259 24.1361 61.1482 24.1361 61.2926C24.1361 61.5815 24.6618 61.8704 25.2114 61.8704C25.546 61.8704 27.0754 59.5593 27.0754 59.0296C27.0754 58.6444 28.0791 58.6685 28.4136 59.0778C28.6287 59.3426 28.557 59.7037 28.0313 60.763C27.4577 61.9426 27.4338 62.1593 27.7206 62.3519C28.318 62.737 28.6526 62.6167 28.9872 61.9667L29.2978 61.3407L29.943 62.3278C30.66 63.4111 30.66 63.4111 31.3291 63.05C31.807 62.8093 31.807 62.8093 31.3291 62.0148L30.8272 61.2204L31.5441 60.6907C32.0699 60.3296 32.2611 59.9685 32.2611 59.463C32.2611 58.5241 31.4247 57.9704 29.7997 57.8741C29.1066 57.85 27.864 57.6333 27.0276 57.4167C26.1673 57.2241 25.3309 57.1037 25.1636 57.1519C24.9963 57.2241 24.853 57.1759 24.853 57.0796C24.853 56.8389 23.5625 56.3333 22.9651 56.3333C22.75 56.3333 22.3199 56.4778 21.9853 56.6463ZM30.7077 59.5833C30.7077 59.8482 30.5166 60.0889 30.3015 60.137C29.9908 60.2093 29.9191 60.113 30.0147 59.8241C30.1103 59.5833 30.0386 59.3185 29.8475 59.1982C29.6085 59.0296 29.6802 58.9815 30.1103 59.0296C30.5166 59.0778 30.7077 59.2463 30.7077 59.5833Z" fill="black"/>
<path d="M40.9835 57.0074C38.7133 57.4889 38.1636 62.1111 40.3861 62.1111C41.796 62.1111 43.1581 59.9444 41.8677 59.7519C41.4614 59.6796 41.2702 59.8 41.1747 60.1852C41.103 60.45 40.9118 60.6426 40.7684 60.5944C40.3861 60.4741 40.3144 59.6796 40.625 58.8852C40.8162 58.3556 40.9357 58.2593 41.1986 58.4759C41.6765 58.8852 42.2978 58.5241 42.2978 57.8741C42.2978 57.2482 41.7004 56.8389 40.9835 57.0074Z" fill="black"/>
<path d="M33.2169 58.5241C33.0258 58.8611 33.0258 59.1019 33.193 59.3185C33.3842 59.5593 33.3364 59.7519 33.0019 60.0407C32.6673 60.3537 32.5717 60.7389 32.5956 61.5815L32.6195 62.713H34.1728C35.4633 62.713 35.7261 62.6407 35.7978 62.2796C35.8695 61.9426 35.7022 61.8704 35.0092 61.8704C33.9099 61.8704 33.9816 61.2926 35.0809 61.1963C35.511 61.1482 35.9412 60.9315 36.0846 60.6907C36.3713 60.137 36.1802 59.9444 35.3438 59.9444C34.9853 59.9444 34.6508 59.7759 34.5791 59.6074C34.4596 59.3426 34.6746 59.2222 35.4394 59.1741C36.2758 59.1259 36.4669 59.0056 36.5147 58.5482C36.5864 58.0426 36.5147 58.0185 35.0331 58.0185C33.6949 58.0185 33.432 58.0907 33.2169 58.5241Z" fill="black"/>
</svg>
