<svg viewBox="0 0 512 607" fill="none" xmlns="http://www.w3.org/2000/svg">
<circle class="logo-outline" cx="269.017" cy="303.729" r="242.983" />
<circle class="logo-inline" cx="269.017" cy="303.729" r="227.473" />
<path d="M345.843 12.1475C229.073 42.8221 132.722 140.597 105.284 255.627C93.7987 306.112 93.1606 363.627 104.008 406.444L112.303 439.035L94.4367 432.645C48.4945 416.668 0 450.538 0 498.467C0 548.952 30.6281 584.1 72.1037 581.544C111.027 579.627 137.827 559.816 146.76 527.225C149.312 517 155.055 522.751 175.474 554.065C211.207 609.023 244.387 623.722 241.197 582.183C239.92 569.402 236.092 558.538 231.625 558.538C222.692 558.538 169.093 488.242 163.35 468.432C159.522 456.929 161.436 455.012 178.664 455.651C195.254 456.29 197.807 458.846 197.807 473.544C197.807 495.272 216.311 542.562 224.606 542.562C228.435 542.562 229.711 538.728 227.797 534.254C226.521 530.42 219.502 509.97 213.759 490.16L202.273 453.733L228.435 396.219C243.111 364.905 290.329 267.769 333.081 180.219C375.833 93.3073 410.289 19.8162 409.651 16.6209C409.013 14.0647 411.566 12.1475 414.756 12.1475C418.585 12.1475 421.137 8.95227 421.137 5.75701C421.137 -3.82879 398.804 -1.27258 345.843 12.1475ZM297.986 229.426L194.616 440.313L172.283 439.035C150.588 437.118 149.95 436.479 141.655 398.775C118.046 288.858 162.074 165.52 251.406 92.6683C275.015 72.8576 379.023 20.4552 396.89 19.1771C399.442 18.5381 354.776 113.757 297.986 229.426ZM110.389 459.485C97.6272 470.988 44.0279 486.964 37.6471 480.574C29.352 472.266 41.4756 462.041 70.1895 455.012C93.7987 448.621 119.322 451.816 110.389 459.485ZM45.3041 520.195C51.685 534.254 57.4278 552.148 57.4278 560.455C57.4278 572.597 55.5135 573.876 45.3041 568.763C29.99 559.816 12.7617 523.39 12.7617 497.828C12.7617 479.296 14.0379 478.018 23.6092 485.686C29.352 490.799 38.9233 506.136 45.3041 520.195ZM133.998 520.195C133.998 531.698 102.094 548.952 79.7608 548.952C58.0658 548.952 58.7039 531.059 81.675 525.947C91.2463 524.029 105.922 519.556 114.856 517C123.789 513.805 131.446 511.248 132.722 511.248C133.36 510.609 133.998 515.083 133.998 520.195Z" fill="#282828"/>
<path d="M331.656 348.491C257 418.148 243.6 432.207 253.171 433.485C257.638 434.124 420.35 283.946 420.988 277.556C422.264 266.053 406.95 278.195 331.656 348.491Z" fill="#282828"/>
<path d="M390.989 376.556C378.866 389.977 379.504 389.977 394.18 402.119C402.475 408.509 413.96 414.261 419.703 414.261C427.36 414.261 426.722 411.065 414.599 402.119L399.923 390.616L419.703 393.811C430.551 395.089 443.951 393.172 449.055 388.698C454.16 384.225 458.627 383.586 458.627 387.42C458.627 390.616 452.246 398.284 444.589 403.397C433.741 410.426 432.465 413.622 439.484 413.622C450.969 414.261 477.769 397.006 477.769 388.698C477.769 362.497 412.046 352.911 390.989 376.556ZM429.913 382.308C431.827 385.503 430.551 388.698 427.36 388.698C423.532 388.698 420.341 385.503 420.341 382.308C420.341 378.474 421.618 375.917 422.894 375.917C424.808 375.917 427.998 378.474 429.913 382.308Z" fill="#282828"/>
<path d="M370.729 450.538C359.881 464.597 357.329 476.739 357.329 518.278C357.329 546.396 360.52 574.514 363.71 580.905C377.748 607.106 446.023 604.55 463.251 577.71C472.185 563.65 472.185 558.538 458.785 517C451.128 492.716 442.195 472.266 439.642 472.266C436.452 472.266 433.899 468.432 433.899 463.958C433.899 451.177 412.843 433.923 396.89 433.923C389.871 433.923 377.748 441.591 370.729 450.538ZM417.947 455.011C428.157 463.319 426.88 464.597 402.633 470.349C375.196 477.378 367.538 470.988 384.129 454.372C394.338 444.147 403.271 444.787 417.947 455.011ZM414.757 514.443C414.757 515.721 409.014 514.443 401.995 510.609C394.976 506.775 389.233 502.301 389.233 500.384C389.233 499.106 394.976 500.384 401.995 504.219C409.014 508.053 414.757 512.526 414.757 514.443ZM411.566 536.171C409.652 539.366 411.566 542.562 415.395 543.84C419.862 545.118 417.947 550.23 410.928 555.343C403.909 561.094 401.357 561.733 404.547 556.621C407.1 552.787 407.1 545.118 403.909 540.645C401.357 536.81 398.805 529.142 398.167 524.668C396.89 518.278 398.805 518.278 405.824 524.029C410.29 527.863 413.481 533.615 411.566 536.171Z" fill="#282828"/>
</svg>
