<svg viewBox="0 0 18 19" fill="none" xmlns="http://www.w3.org/2000/svg">
<path d="M6 15.5C6 15.5 5.5 11.5 5.5 9C5.5 6.5 6 4 6 4C6 4 8 3 11.5 2C15 1 17 1 17 1C17 1 16.5 4.5 16.5 7C16.5 9.5 17 14.5 17 14.5" stroke="#282828" stroke-width="1.5" stroke-linecap="round" stroke-linejoin="round"/>
<path d="M17 14.5C17 15.8807 15.8807 17 14.5 17C13.1193 17 12 15.8807 12 14.5C12 13.1193 13.1193 12 14.5 12C15.8807 12 17 13.1193 17 14.5Z" stroke="#282828" stroke-width="1.5" stroke-linecap="round" stroke-linejoin="round"/>
<path d="M6 15.5C6 16.8807 4.88071 18 3.5 18C2.11929 18 1 16.8807 1 15.5C1 14.1193 2.11929 13 3.5 13C4.88071 13 6 14.1193 6 15.5Z" stroke="#282828" stroke-width="1.5" stroke-linecap="round" stroke-linejoin="round"/>
<path d="M12.3625 8.81771C12.3625 8.81771 11.8513 8.36328 10.9992 8.36328C10.1472 8.36328 9.63593 8.81771 9.63593 8.81771" stroke="#282828" stroke-linecap="round" stroke-linejoin="round"/>
<path d="M13.9991 7L13.9992 7.45123" stroke="#282828" stroke-width="1.5" stroke-linecap="round" stroke-linejoin="round"/>
<path d="M8.00065 7L8.00077 7.45761" stroke="#282828" stroke-width="1.5" stroke-linecap="round" stroke-linejoin="round"/>
</svg>
