<?xml version="1.0" encoding="UTF-8"?>
<svg width="700pt" height="700pt" version="1.1" viewBox="0 0 700 700" xmlns="http://www.w3.org/2000/svg" xmlns:xlink="http://www.w3.org/1999/xlink">
 <defs>
  <symbol id="t" overflow="visible">
   <path d="m20.609-1.2344c-1.0625 0.55469-2.1719 0.96875-3.3281 1.25-1.1484 0.28125-2.3438 0.42188-3.5938 0.42188-3.7422 0-6.7031-1.0391-8.8906-3.125-2.1797-2.0938-3.2656-4.9258-3.2656-8.5 0-3.582 1.0859-6.4141 3.2656-8.5 2.1875-2.0938 5.1484-3.1406 8.8906-3.1406 1.25 0 2.4453 0.14062 3.5938 0.42188 1.1562 0.27344 2.2656 0.68359 3.3281 1.2344v4.6406c-1.0742-0.72656-2.1328-1.2578-3.1719-1.5938-1.043-0.34375-2.1367-0.51562-3.2812-0.51562-2.0625 0-3.6875 0.66406-4.875 1.9844-1.1797 1.3242-1.7656 3.1484-1.7656 5.4688 0 2.3125 0.58594 4.1328 1.7656 5.4531 1.1875 1.3242 2.8125 1.9844 4.875 1.9844 1.1445 0 2.2383-0.17188 3.2812-0.51562 1.0391-0.34375 2.0977-0.87891 3.1719-1.6094z"/>
  </symbol>
  <symbol id="d" overflow="visible">
   <path d="m15.078-12.25c-0.46875-0.21875-0.9375-0.37891-1.4062-0.48438-0.46094-0.10156-0.92969-0.15625-1.4062-0.15625-1.375 0-2.4375 0.44531-3.1875 1.3281-0.74219 0.88672-1.1094 2.1562-1.1094 3.8125v7.75h-5.3906v-16.828h5.3906v2.7656c0.6875-1.1016 1.4766-1.9062 2.375-2.4062 0.89453-0.50781 1.9688-0.76562 3.2188-0.76562 0.17578 0 0.36719 0.011719 0.57812 0.03125 0.21875 0.011719 0.52344 0.042969 0.92188 0.09375z"/>
  </symbol>
  <symbol id="a" overflow="visible">
   <path d="m19.375-8.4531v1.5312h-12.562c0.125 1.2617 0.57812 2.2109 1.3594 2.8438 0.78125 0.625 1.875 0.9375 3.2812 0.9375 1.125 0 2.2812-0.16406 3.4688-0.5 1.1875-0.33203 2.4062-0.84375 3.6562-1.5312v4.1562c-1.2734 0.48047-2.543 0.83984-3.8125 1.0781-1.2734 0.25-2.543 0.375-3.8125 0.375-3.043 0-5.4062-0.76953-7.0938-2.3125-1.6875-1.5508-2.5312-3.7227-2.5312-6.5156 0-2.75 0.82812-4.9102 2.4844-6.4844 1.6562-1.5703 3.9375-2.3594 6.8438-2.3594 2.6328 0 4.7422 0.79688 6.3281 2.3906 1.5938 1.5938 2.3906 3.7266 2.3906 6.3906zm-5.5312-1.7969c0-1.0195-0.29688-1.8438-0.89062-2.4688s-1.3711-0.9375-2.3281-0.9375c-1.043 0-1.8906 0.29688-2.5469 0.89062-0.64844 0.58594-1.0547 1.4219-1.2188 2.5156z"/>
  </symbol>
  <symbol id="k" overflow="visible">
   <path d="m10.125-7.5781c-1.125 0-1.9688 0.19531-2.5312 0.57812-0.5625 0.38672-0.84375 0.94922-0.84375 1.6875 0 0.67969 0.22266 1.2109 0.67188 1.5938 0.45703 0.38672 1.0938 0.57812 1.9062 0.57812 1.0078 0 1.8594-0.35938 2.5469-1.0781 0.69531-0.72656 1.0469-1.6406 1.0469-2.7344v-0.625zm8.2188-2.0156v9.5938h-5.4219v-2.5c-0.71875 1.0234-1.5312 1.7656-2.4375 2.2344-0.89844 0.46875-1.9922 0.70312-3.2812 0.70312-1.75 0-3.168-0.50391-4.25-1.5156-1.0859-1.0195-1.625-2.3438-1.625-3.9688 0-1.9688 0.67578-3.4102 2.0312-4.3281 1.3516-0.92578 3.4844-1.3906 6.3906-1.3906h3.1719v-0.42188c0-0.85156-0.33984-1.4766-1.0156-1.875-0.66797-0.39453-1.7148-0.59375-3.1406-0.59375-1.1484 0-2.2148 0.11719-3.2031 0.34375-0.99219 0.23047-1.9141 0.57812-2.7656 1.0469v-4.1094c1.1445-0.28125 2.2969-0.49219 3.4531-0.64062 1.1641-0.14453 2.332-0.21875 3.5-0.21875 3.0312 0 5.2188 0.60156 6.5625 1.7969 1.3516 1.1992 2.0312 3.1484 2.0312 5.8438z"/>
  </symbol>
  <symbol id="b" overflow="visible">
   <path d="m8.4531-21.609v4.7812h5.5469v3.8438h-5.5469v7.1406c0 0.78125 0.15625 1.3125 0.46875 1.5938 0.3125 0.27344 0.92578 0.40625 1.8438 0.40625h2.7656v3.8438h-4.6094c-2.125 0-3.6328-0.44141-4.5156-1.3281-0.88672-0.88281-1.3281-2.3906-1.3281-4.5156v-7.1406h-2.6719v-3.8438h2.6719v-4.7812z"/>
  </symbol>
  <symbol id="j" overflow="visible">
   <path d="m14.031-14.359v-9.0156h5.4062v23.375h-5.4062v-2.4375c-0.74219 0.99219-1.5586 1.7188-2.4531 2.1875-0.88672 0.45703-1.918 0.6875-3.0938 0.6875-2.0742 0-3.7773-0.82031-5.1094-2.4688-1.3359-1.6445-2-3.7656-2-6.3594s0.66406-4.7109 2-6.3594c1.332-1.6562 3.0352-2.4844 5.1094-2.4844 1.1641 0 2.1953 0.23438 3.0938 0.70312 0.89453 0.46875 1.7109 1.1953 2.4531 2.1719zm-3.5469 10.891c1.1562 0 2.0352-0.42188 2.6406-1.2656 0.60156-0.84375 0.90625-2.0625 0.90625-3.6562 0-1.6016-0.30469-2.8281-0.90625-3.6719-0.60547-0.84375-1.4844-1.2656-2.6406-1.2656-1.1484 0-2.0234 0.42188-2.625 1.2656-0.60547 0.84375-0.90625 2.0703-0.90625 3.6719 0 1.5938 0.30078 2.8125 0.90625 3.6562 0.60156 0.84375 1.4766 1.2656 2.625 1.2656z"/>
  </symbol>
  <symbol id="e" overflow="visible">
   <path d="m11.531-3.4688c1.1562 0 2.0352-0.42188 2.6406-1.2656 0.60156-0.84375 0.90625-2.0625 0.90625-3.6562 0-1.6016-0.30469-2.8281-0.90625-3.6719-0.60547-0.84375-1.4844-1.2656-2.6406-1.2656-1.1484 0-2.0273 0.42969-2.6406 1.2812-0.61719 0.84375-0.92188 2.0625-0.92188 3.6562 0 1.5859 0.30469 2.8047 0.92188 3.6562 0.61328 0.84375 1.4922 1.2656 2.6406 1.2656zm-3.5625-10.891c0.73828-0.97656 1.5547-1.7031 2.4531-2.1719 0.90625-0.46875 1.9414-0.70312 3.1094-0.70312 2.0703 0 3.7734 0.82812 5.1094 2.4844 1.332 1.6484 2 3.7656 2 6.3594s-0.66797 4.7148-2 6.3594c-1.3359 1.6484-3.0391 2.4688-5.1094 2.4688-1.168 0-2.2031-0.23438-3.1094-0.70312-0.89844-0.46875-1.7148-1.1914-2.4531-2.1719v2.4375h-5.3906v-23.375h5.3906z"/>
  </symbol>
  <symbol id="i" overflow="visible">
   <path d="m0.375-16.828h5.375l4.5312 11.422 3.8438-11.422h5.375l-7.0781 18.422c-0.71094 1.875-1.5391 3.1797-2.4844 3.9219-0.94922 0.75-2.1992 1.125-3.75 1.125h-3.1094v-3.5312h1.6875c0.90625 0 1.5664-0.14844 1.9844-0.4375 0.41406-0.29297 0.73828-0.8125 0.96875-1.5625l0.15625-0.46875z"/>
  </symbol>
  <symbol id="h" overflow="visible">
   <path d="m18.438-21.719v4.75c-1.2422-0.55078-2.4492-0.96875-3.625-1.25-1.168-0.28125-2.2734-0.42188-3.3125-0.42188-1.375 0-2.3984 0.19531-3.0625 0.57812-0.65625 0.375-0.98438 0.96484-0.98438 1.7656 0 0.60547 0.21875 1.0742 0.65625 1.4062 0.44531 0.33594 1.2578 0.62109 2.4375 0.85938l2.4688 0.5c2.4883 0.5 4.2578 1.2617 5.3125 2.2812 1.0508 1.0234 1.5781 2.4766 1.5781 4.3594 0 2.4688-0.73438 4.3086-2.2031 5.5156-1.4688 1.2109-3.7109 1.8125-6.7188 1.8125-1.4297 0-2.8594-0.13672-4.2969-0.40625-1.4297-0.26953-2.8555-0.67188-4.2812-1.2031v-4.875c1.4258 0.76172 2.8047 1.3359 4.1406 1.7188 1.3438 0.38672 2.6328 0.57812 3.875 0.57812 1.2578 0 2.2227-0.20703 2.8906-0.625 0.67578-0.42578 1.0156-1.0312 1.0156-1.8125 0-0.69531-0.23047-1.2344-0.6875-1.6094-0.44922-0.38281-1.3555-0.72656-2.7188-1.0312l-2.2344-0.5c-2.25-0.47656-3.8984-1.2422-4.9375-2.2969-1.0312-1.0508-1.5469-2.4688-1.5469-4.25 0-2.2383 0.71875-3.957 2.1562-5.1562 1.4453-1.1953 3.5234-1.7969 6.2344-1.7969 1.2266 0 2.4922 0.09375 3.7969 0.28125 1.3008 0.17969 2.6484 0.45312 4.0469 0.82812z"/>
  </symbol>
  <symbol id="c" overflow="visible">
   <path d="m10.594-13.391c-1.1992 0-2.1094 0.43359-2.7344 1.2969-0.625 0.85547-0.9375 2.0898-0.9375 3.7031 0 1.6055 0.3125 2.8398 0.9375 3.7031 0.625 0.85547 1.5352 1.2812 2.7344 1.2812 1.1641 0 2.0625-0.42578 2.6875-1.2812 0.625-0.86328 0.9375-2.0977 0.9375-3.7031 0-1.6133-0.3125-2.8477-0.9375-3.7031-0.625-0.86328-1.5234-1.2969-2.6875-1.2969zm0-3.8438c2.8945 0 5.1562 0.78125 6.7812 2.3438s2.4375 3.7305 2.4375 6.5c0 2.7617-0.8125 4.9219-2.4375 6.4844s-3.8867 2.3438-6.7812 2.3438c-2.9062 0-5.1797-0.78125-6.8125-2.3438-1.6367-1.5625-2.4531-3.7227-2.4531-6.4844 0-2.7695 0.81641-4.9375 2.4531-6.5 1.6328-1.5625 3.9062-2.3438 6.8125-2.3438z"/>
  </symbol>
  <symbol id="g" overflow="visible">
   <path d="m19.5-10.25v10.25h-5.4062v-7.8438c0-1.4453-0.039062-2.4453-0.10938-3-0.0625-0.55078-0.17188-0.95703-0.32812-1.2188-0.21094-0.35156-0.49609-0.625-0.85938-0.8125-0.35547-0.19531-0.76562-0.29688-1.2344-0.29688-1.1172 0-1.9961 0.43359-2.6406 1.2969-0.63672 0.86719-0.95312 2.0625-0.95312 3.5938v8.2812h-5.3906v-16.828h5.3906v2.4688c0.80078-0.97656 1.6562-1.7031 2.5625-2.1719 0.91406-0.46875 1.9258-0.70312 3.0312-0.70312 1.9453 0 3.4219 0.60156 4.4219 1.7969 1.0078 1.1875 1.5156 2.918 1.5156 5.1875z"/>
  </symbol>
  <symbol id="s" overflow="visible">
   <path d="m2.8281-22.422h5.7812v8.5469h8.5312v-8.5469h5.7812v22.422h-5.7812v-9.5156h-8.5312v9.5156h-5.7812z"/>
  </symbol>
  <symbol id="f" overflow="visible">
   <path d="m2.4062-6.5469v-10.281h5.4062v1.6875c0 0.90625-0.007812 2.0547-0.015625 3.4375-0.011719 1.375-0.015625 2.293-0.015625 2.75 0 1.3555 0.03125 2.3281 0.09375 2.9219 0.070312 0.59375 0.19531 1.0273 0.375 1.2969 0.21875 0.35547 0.50391 0.625 0.85938 0.8125 0.35156 0.1875 0.75781 0.28125 1.2188 0.28125 1.125 0 2.0039-0.42578 2.6406-1.2812 0.64453-0.86328 0.96875-2.0625 0.96875-3.5938v-8.3125h5.375v16.828h-5.375v-2.4375c-0.8125 0.98047-1.6719 1.7031-2.5781 2.1719s-1.9023 0.70312-2.9844 0.70312c-1.9492 0-3.4336-0.59375-4.4531-1.7812-1.0117-1.1953-1.5156-2.9297-1.5156-5.2031z"/>
  </symbol>
  <symbol id="r" overflow="visible">
   <path d="m13.656-23.375v3.5312h-2.9688c-0.76172 0-1.293 0.14062-1.5938 0.42188-0.30469 0.27344-0.45312 0.74609-0.45312 1.4219v1.1719h4.5938v3.8438h-4.5938v12.984h-5.375v-12.984h-2.6875v-3.8438h2.6875v-1.1719c0-1.832 0.50781-3.1875 1.5312-4.0625 1.0195-0.875 2.6016-1.3125 4.75-1.3125z"/>
  </symbol>
  <symbol id="q" overflow="visible">
   <path d="m18.172-14.031c0.6875-1.0391 1.4922-1.832 2.4219-2.375 0.9375-0.55078 1.9688-0.82812 3.0938-0.82812 1.9375 0 3.4102 0.60156 4.4219 1.7969 1.0078 1.1875 1.5156 2.918 1.5156 5.1875v10.25h-5.4062v-8.7656c0.007812-0.13281 0.015625-0.26953 0.015625-0.40625 0.007813-0.14453 0.015625-0.34766 0.015625-0.60938 0-1.1875-0.17969-2.0469-0.53125-2.5781-0.35547-0.53906-0.92188-0.8125-1.7031-0.8125-1.0234 0-1.8086 0.42188-2.3594 1.2656-0.55469 0.83594-0.83984 2.0469-0.85938 3.6406v8.2656h-5.4062v-8.7656c0-1.8633-0.16406-3.0625-0.48438-3.5938-0.32422-0.53906-0.89844-0.8125-1.7188-0.8125-1.0312 0-1.8281 0.42188-2.3906 1.2656-0.55469 0.84375-0.82812 2.0547-0.82812 3.625v8.2812h-5.4219v-16.828h5.4219v2.4688c0.65625-0.94531 1.4102-1.6602 2.2656-2.1406 0.85156-0.48828 1.7969-0.73438 2.8281-0.73438 1.1641 0 2.1914 0.28125 3.0781 0.84375 0.89453 0.5625 1.5703 1.3516 2.0312 2.3594z"/>
  </symbol>
  <symbol id="p" overflow="visible">
   <path d="m19.5-10.25v10.25h-5.4062v-7.8125c0-1.4688-0.039062-2.4766-0.10938-3.0312-0.0625-0.55078-0.17188-0.95703-0.32812-1.2188-0.21094-0.35156-0.49609-0.625-0.85938-0.8125-0.35547-0.19531-0.76562-0.29688-1.2344-0.29688-1.1172 0-1.9961 0.43359-2.6406 1.2969-0.63672 0.86719-0.95312 2.0625-0.95312 3.5938v8.2812h-5.3906v-23.375h5.3906v9.0156c0.80078-0.97656 1.6562-1.7031 2.5625-2.1719 0.91406-0.46875 1.9258-0.70312 3.0312-0.70312 1.9453 0 3.4219 0.60156 4.4219 1.7969 1.0078 1.1875 1.5156 2.918 1.5156 5.1875z"/>
  </symbol>
  <symbol id="o" overflow="visible">
   <path d="m2.8281-22.422h6.4531l8.1562 15.375v-15.375h5.4844v22.422h-6.4531l-8.1562-15.391v15.391h-5.4844z"/>
  </symbol>
  <symbol id="n" overflow="visible">
   <path d="m2.8281-22.422h9.5938c2.8516 0 5.0391 0.63672 6.5625 1.9062 1.5312 1.2617 2.2969 3.0625 2.2969 5.4062 0 2.3555-0.76562 4.168-2.2969 5.4375-1.5234 1.2617-3.7109 1.8906-6.5625 1.8906h-3.8125v7.7812h-5.7812zm5.7812 4.1875v6.2656h3.2031c1.1133 0 1.9766-0.26953 2.5938-0.8125 0.61328-0.55078 0.92188-1.3281 0.92188-2.3281s-0.30859-1.7695-0.92188-2.3125c-0.61719-0.53906-1.4805-0.8125-2.5938-0.8125z"/>
  </symbol>
  <symbol id="m" overflow="visible">
   <path d="m2.5781-16.828h5.3906v16.531c0 2.25-0.54297 3.9688-1.625 5.1562-1.0859 1.1875-2.6523 1.7812-4.7031 1.7812h-2.6562v-3.5312h0.92188c1.0195 0 1.7188-0.23047 2.0938-0.6875 0.38281-0.46094 0.57812-1.3672 0.57812-2.7188zm0-6.5469h5.3906v4.3906h-5.3906z"/>
  </symbol>
  <symbol id="l" overflow="visible">
   <path d="m16.172-16.297v4.3906c-0.73047-0.5-1.4648-0.86719-2.2031-1.1094-0.73047-0.25-1.4922-0.375-2.2812-0.375-1.5 0-2.6719 0.44531-3.5156 1.3281-0.83594 0.875-1.25 2.1016-1.25 3.6719 0 1.5742 0.41406 2.7969 1.25 3.6719 0.84375 0.875 2.0156 1.3125 3.5156 1.3125 0.84375 0 1.6406-0.125 2.3906-0.375 0.75781-0.25 1.457-0.61719 2.0938-1.1094v4.3906c-0.83594 0.3125-1.6875 0.54688-2.5625 0.70312-0.86719 0.15625-1.7305 0.23438-2.5938 0.23438-3.043 0-5.418-0.77344-7.125-2.3281-1.7109-1.5625-2.5625-3.7266-2.5625-6.5 0-2.7812 0.85156-4.9453 2.5625-6.5 1.707-1.5625 4.082-2.3438 7.125-2.3438 0.875 0 1.7383 0.078125 2.5938 0.23438 0.86328 0.15625 1.7188 0.39062 2.5625 0.70312z"/>
  </symbol>
 </defs>
 <g>
  <path d="m431.6 483.26c-2.4023-0.49219-4.8945-0.007813-6.9375 1.3438-2.043 1.3516-3.4688 3.457-3.957 5.8555-2.9961 14.898-11.305 28.203-23.375 37.438-12.07 9.2305-27.082 13.77-42.246 12.762-15.164-1.0039-29.449-7.4805-40.195-18.227s-17.223-25.031-18.23-40.195c-1.0039-15.164 3.5312-30.176 12.766-42.246 9.2344-12.07 22.535-20.379 37.438-23.375 4.9961-1.0195 8.2188-5.8984 7.1992-10.895s-5.8984-8.2188-10.895-7.1992c-19.281 3.8789-36.5 14.625-48.457 30.246-11.953 15.621-17.828 35.051-16.531 54.68 1.2969 19.625 9.6758 38.113 23.578 52.027 13.906 13.914 32.387 22.305 52.016 23.613 19.625 1.3086 39.059-4.5547 54.688-16.5 15.629-11.941 26.387-29.156 30.277-48.438 1.0234-4.9766-2.168-9.8438-7.1367-10.891z"/>
  <path d="m229.75 289.54c-15.582 10.512-29.805 22.914-42.34 36.922-1.793 1.793-2.7695 4.2461-2.7031 6.7812 0.070312 2.5352 1.1758 4.9297 3.0664 6.6211 1.8867 1.6953 4.3867 2.5352 6.9141 2.3281 2.5273-0.20703 4.8594-1.4453 6.4453-3.4219 11.527-12.801 24.59-24.125 38.895-33.723 4.0312-2.9141 5.0273-8.4961 2.2578-12.625-2.7695-4.1289-8.3125-5.3242-12.535-2.6992z"/>
  <path d="m655.29 206.09c-59.613-65.859-139.21-110.3-226.56-126.48-87.344-16.176-177.58-3.1992-256.83 36.938l-113.84-113.85c-3.6367-3.3867-9.3047-3.2891-12.82 0.22656-3.5156 3.5156-3.6172 9.1836-0.22656 12.82l541.54 541.54c3.6367 3.3867 9.3047 3.2891 12.82-0.22656s3.6133-9.1836 0.22656-12.82l-272.43-272.43c9.4805-1.3281 19.043-2.0078 28.617-2.0312 30.879-0.042968 61.375 6.8047 89.27 20.051 27.895 13.242 52.477 32.547 71.961 56.504 3.2734 3.7695 8.9531 4.25 12.816 1.0859 3.8633-3.1641 4.5117-8.8242 1.4609-12.781-21.207-26.082-47.965-47.105-78.328-61.531-30.363-14.426-63.562-21.891-97.18-21.852-15.004 0.023437-29.969 1.5312-44.676 4.4922l-125.42-125.48c75.301-36.641 160.46-47.855 242.68-31.953 82.215 15.902 157.05 58.059 213.26 120.14 1.5586 2.0742 3.9141 3.3945 6.4922 3.6445s5.1445-0.59375 7.0703-2.3281c1.9258-1.7344 3.0312-4.1992 3.0508-6.7891 0.019531-2.5898-1.0508-5.0703-2.9492-6.8359z"/>
  <path d="m101.26 162.15c-13.352 10.785-26.012 22.398-37.906 34.77-3.3555 3.6992-3.1641 9.3906 0.43359 12.852 3.5938 3.4609 9.2891 3.4414 12.855-0.050782 11.359-11.781 23.445-22.84 36.188-33.105 3.9766-3.1953 4.6094-9.0117 1.4141-12.988-3.1953-3.9727-9.0078-4.6094-12.984-1.4141z"/>
 </g>
</svg>
