<svg viewBox="0 0 28 28" fill="none" xmlns="http://www.w3.org/2000/svg">
<path d="M12.6667 2H15.3333C16.0697 2 16.6667 2.59696 16.6667 3.33333V4.09172C16.6667 4.66212 17.0495 5.15767 17.5763 5.37637C18.1033 5.59517 18.7169 5.51179 19.1204 5.10831L19.6568 4.57188C20.1775 4.05117 21.0217 4.05117 21.5424 4.57188L23.428 6.45749C23.9488 6.9782 23.9487 7.82241 23.428 8.34312L22.8917 8.87947C22.4881 9.28297 22.4048 9.89663 22.6236 10.4237C22.8423 10.9505 23.3379 11.3333 23.9084 11.3333H24.6667C25.4031 11.3333 26 11.9303 26 12.6667V15.3333C26 16.0697 25.4031 16.6667 24.6667 16.6667H23.9083C23.3379 16.6667 22.8424 17.0495 22.6236 17.5763C22.4048 18.1033 22.4881 18.7169 22.8917 19.1204L23.428 19.6568C23.9488 20.1775 23.9488 21.0217 23.428 21.5424L21.5424 23.428C21.0217 23.9488 20.1775 23.9488 19.6568 23.428L19.1204 22.8917C18.7169 22.4881 18.1033 22.4048 17.5763 22.6236C17.0495 22.8424 16.6667 23.3379 16.6667 23.9083V24.6667C16.6667 25.4031 16.0697 26 15.3333 26H12.6667C11.9303 26 11.3333 25.4031 11.3333 24.6667V23.9084C11.3333 23.3379 10.9505 22.8423 10.4237 22.6236C9.89663 22.4048 9.28297 22.4881 8.87947 22.8917L8.34309 23.428C7.82239 23.9488 6.97817 23.9488 6.45748 23.428L4.57185 21.5424C4.05116 21.0217 4.05116 20.1775 4.57185 19.6568L5.10831 19.1204C5.51179 18.7169 5.59517 18.1033 5.37637 17.5763C5.15767 17.0495 4.66212 16.6667 4.09172 16.6667H3.33333C2.59696 16.6667 2 16.0697 2 15.3333V12.6667C2 11.9303 2.59696 11.3333 3.33333 11.3333H4.09169C4.66211 11.3333 5.15767 10.9505 5.37639 10.4237C5.5952 9.89667 5.51181 9.28305 5.10831 8.87955L4.57188 8.34312C4.05117 7.82241 4.05117 6.9782 4.57188 6.45751L6.45749 4.57188C6.9782 4.05119 7.82241 4.05119 8.34312 4.57188L8.87955 5.10831C9.28304 5.51181 9.89667 5.5952 10.4237 5.37639C10.9505 5.15767 11.3333 4.66211 11.3333 4.09168V3.33333C11.3333 2.59696 11.9303 2 12.6667 2Z" stroke="#282828" stroke-width="2.5"/>
<path d="M16.6666 14C16.6666 15.4728 15.4728 16.6667 14 16.6667C12.5272 16.6667 11.3333 15.4728 11.3333 14C11.3333 12.5272 12.5272 11.3333 14 11.3333C15.4728 11.3333 16.6666 12.5272 16.6666 14Z" stroke="#282828" stroke-width="2.5"/>
</svg>
