<svg viewBox="0 0 18 19" fill="none" xmlns="http://www.w3.org/2000/svg">
<path d="M11 7.5C11 7.5 11.5 8.5 11.5 10.5C11.5 12.5 11 13.5 11 13.5" stroke="#282828" stroke-width="2" stroke-linecap="round" stroke-linejoin="round"/>
<path d="M7 7.5C7 7.5 6.5 8.5 6.5 10.5C6.5 12.5 7 13.5 7 13.5" stroke="#282828" stroke-width="2" stroke-linecap="round" stroke-linejoin="round"/>
<path d="M15 4C15 9.8587 16.3689 18 9 18C1.63107 18 2.99999 9.8587 2.99999 4" stroke="#282828" stroke-width="2" stroke-linecap="round" stroke-linejoin="round"/>
<path d="M1 4H17" stroke="#282828" stroke-width="2" stroke-linecap="round" stroke-linejoin="round"/>
<path d="M12 4V3C12 1.22496 10.3627 1 9 1C7.6373 1 6 1.22496 6 3V4" stroke="#282828" stroke-width="2" stroke-linecap="round" stroke-linejoin="round"/>
</svg>
